<svg width="18" height="21" viewBox="0 0 18 21" fill="none" xmlns="http://www.w3.org/2000/svg">
<path fill-rule="evenodd" clip-rule="evenodd" d="M8.6653 16.6319L2.73395 19.8813C2.26037 20.1274 1.67694 19.9532 1.41587 19.4877C1.34034 19.3435 1.29959 19.1836 1.29688 19.0209V4.62271C1.29688 1.87672 3.17331 0.77832 5.87353 0.77832H12.2168C14.8346 0.77832 16.7934 1.80349 16.7934 4.43965V19.0209C16.7934 19.2806 16.6903 19.5298 16.5066 19.7134C16.3229 19.8971 16.0738 20.0003 15.814 20.0003C15.6484 19.9977 15.4855 19.9569 15.3381 19.8813L9.3701 16.6319C9.15019 16.5131 8.88521 16.5131 8.6653 16.6319Z" stroke="#333333" stroke-width="1.5" stroke-linecap="round" stroke-linejoin="round"/>
<path d="M5.37109 7.32324H12.6661" stroke="#333333" stroke-width="1.5" stroke-linecap="round" stroke-linejoin="round"/>
</svg>
