<svg width="30" height="25" viewBox="0 0 30 25" fill="none" xmlns="http://www.w3.org/2000/svg">
<path fill-rule="evenodd" clip-rule="evenodd" d="M14.9994 24.0019C12.5102 24.0019 9.9887 23.9062 7.50628 23.7178L4.3305 23.4795C2.44769 23.3389 0.920336 22.0303 0.617606 20.2969L0.459406 19.3769C-0.206614 15.5312 -0.148014 11.6445 0.632256 7.82519C0.935966 6.33496 2.2846 5.20996 3.91253 5.08886L7.55901 4.81152C7.57854 4.81152 7.601 4.79394 7.601 4.76953C7.601 2.13965 9.90569 0 12.7377 0H17.2612C20.0942 0 22.3989 2.13965 22.3989 4.76953C22.3989 4.79297 22.4184 4.81152 22.4438 4.81152L26.0903 5.08886C27.7192 5.21093 29.0668 6.33593 29.3676 7.82519C30.1498 11.6533 30.2074 15.54 29.5395 19.3769L29.3813 20.2969C29.0824 22.0303 27.5551 23.3389 25.6684 23.4795L22.4936 23.7178C20.0112 23.9062 17.4897 24.0019 14.9994 24.0019H14.9994ZM15.0014 9.00097C11.6928 9.00097 9.00041 11.6933 9.00041 15.0019C9.00041 18.3105 11.6928 21.0019 15.0014 21.0019C18.31 21.0019 21.0014 18.3105 21.0014 15.0019C21.0014 11.6934 18.31 9.00097 15.0014 9.00097Z" fill="#A4A4A4"/>
<path d="M11.002 15.002C11.002 12.7929 12.7929 11.002 15.002 11.002C17.211 11.002 19.002 12.7929 19.002 15.002C19.002 17.211 17.211 19.002 15.002 19.002C12.7929 19.002 11.002 17.211 11.002 15.002Z" fill="#A4A4A4"/>
</svg>
