<svg width="24" height="24" viewBox="0 0 24 24" fill="none" xmlns="http://www.w3.org/2000/svg">
<path fill-rule="evenodd" clip-rule="evenodd" d="M12.0004 21.6004C17.3023 21.6004 21.6004 17.3023 21.6004 12.0004C21.6004 6.69846 17.3023 2.40039 12.0004 2.40039C6.69846 2.40039 2.40039 6.69846 2.40039 12.0004C2.40039 17.3023 6.69846 21.6004 12.0004 21.6004ZM16.4489 10.4489C16.9175 9.98029 16.9175 9.22049 16.4489 8.75186C15.9803 8.28323 15.2205 8.28323 14.7519 8.75186L10.8004 12.7033L9.24892 11.1519C8.78029 10.6832 8.02049 10.6832 7.55186 11.1519C7.08323 11.6205 7.08323 12.3803 7.55186 12.8489L9.95186 15.2489C10.4205 15.7175 11.1803 15.7175 11.6489 15.2489L16.4489 10.4489Z" fill="#DF1B3F"/>
</svg>
