<svg width="50" height="50" viewBox="0 0 50 50" fill="none" xmlns="http://www.w3.org/2000/svg">
<g clip-path="url(#clip0_6176_42238)">
<path d="M9.20898 25.6514C8.36523 25.6514 8.36523 24.3477 9.20898 24.3477H19.9521C20.835 24.3477 20.835 25.6514 19.9521 25.6514H9.20898ZM12.2012 1.30371V8.12891C12.2012 10.3525 10.3975 12.1553 8.17285 12.1553H1.30469V45.9746C1.30469 47.4697 2.53223 48.6973 4.0293 48.6973H31.2334C32.0771 48.6973 32.0771 50.001 31.2334 50.001H4.02832C1.80371 50 0 48.1982 0 45.9736V11.541C0 11.3496 0.0771484 11.1963 0.230469 11.043L11.0889 0.191406C11.2041 0.0761719 11.3955 0 11.5498 0H33.8037C36.0293 0 37.832 1.80176 37.832 4.02637V10.8135C37.832 11.6572 36.5273 11.6572 36.5273 10.8135V4.02637C36.5273 2.53125 35.2998 1.30371 33.8027 1.30371H12.2012ZM2.26367 10.8516H8.17285C9.66895 10.8516 10.8975 9.625 10.8975 8.12891V2.22363L2.26367 10.8516ZM9.20898 32.7842C8.36523 32.7842 8.36523 31.4805 9.20898 31.4805H19.9521C20.835 31.4805 20.835 32.7842 19.9521 32.7842H9.20898ZM9.20898 39.916C8.36523 39.916 8.36523 38.6123 9.20898 38.6123H19.9521C20.835 38.6123 20.835 39.916 19.9521 39.916H9.20898Z" fill="#333333"/>
<path d="M46.2498 40.0002H44.9998V37.9168C44.9998 37.5853 44.8681 37.2674 44.6337 37.0329C44.3993 36.7985 44.0814 36.6668 43.7498 36.6668H42.4998V34.5835C42.4998 34.252 42.3681 33.934 42.1337 33.6996C41.8993 33.4652 41.5814 33.3335 41.2498 33.3335H24.5832C24.4727 33.3335 24.3667 33.3774 24.2885 33.4555C24.2104 33.5337 24.1665 33.6397 24.1665 33.7502V43.7502C24.1665 43.8607 24.2104 43.9667 24.2885 44.0448C24.3667 44.1229 24.4727 44.1668 24.5832 44.1668H47.0832C47.1937 44.1668 47.2997 44.1229 47.3778 44.0448C47.4559 43.9667 47.4998 43.8607 47.4998 43.7502V41.2502C47.4998 40.9186 47.3681 40.6007 47.1337 40.3663C46.8993 40.1319 46.5814 40.0002 46.2498 40.0002ZM35.8332 34.1668H41.2498C41.3603 34.1668 41.4663 34.2107 41.5445 34.2889C41.6226 34.367 41.6665 34.473 41.6665 34.5835V36.6668H35.8332V34.1668ZM30.8332 34.1668H34.9998V36.6668H30.8332V34.1668ZM24.9998 34.1668H29.9998V36.6668H24.9998V34.1668ZM24.9998 37.5002H27.4998V40.0002H24.9998V37.5002ZM29.9998 43.3335H24.9998V40.8335H29.9998V43.3335ZM28.3332 40.0002V37.5002H32.4998V40.0002H28.3332ZM35.8332 43.3335H30.8332V40.8335H35.8332V43.3335ZM33.3332 40.0002V37.5002H38.3332V40.0002H33.3332ZM40.8332 43.3335H36.6665V40.8335H40.8332V43.3335ZM39.1665 40.0002V37.5002H43.7498C43.8603 37.5002 43.9663 37.5441 44.0445 37.6222C44.1226 37.7003 44.1665 37.8063 44.1665 37.9168V40.0002H39.1665ZM46.6665 43.3335H41.6665V40.8335H46.2498C46.3603 40.8335 46.4663 40.8774 46.5445 40.9555C46.6226 41.0337 46.6665 41.1397 46.6665 41.2502V43.3335Z" fill="#333333"/>
<path d="M46.8477 18.4864C46.5305 18.183 46.1084 18.0137 45.6694 18.0137C45.2304 18.0137 44.8084 18.183 44.4911 18.4864L41.5952 21.3822C41.3609 21.6166 41.2293 21.9345 41.2293 22.266C41.2293 22.5974 41.3609 22.9153 41.5952 23.1497L39.2386 25.5072L38.3144 24.583C38.1786 24.4474 38.0135 24.3448 37.8317 24.2833C37.6499 24.2217 37.4563 24.2029 37.2661 24.2282C37.0758 24.2535 36.8939 24.3222 36.7345 24.4292C36.5751 24.5361 36.4425 24.6783 36.3469 24.8447L33.4977 29.8139C33.3897 30.0037 33.3331 30.2185 33.3335 30.4369C33.3339 30.6553 33.3912 30.8699 33.4998 31.0594C33.6085 31.2489 33.7646 31.4068 33.9529 31.5175C34.1412 31.6281 34.3552 31.6878 34.5736 31.6905C34.7689 31.6898 34.9614 31.6439 35.1361 31.5564L40.3702 28.973C40.5479 28.8848 40.702 28.7558 40.8201 28.5964C40.9382 28.4371 41.0167 28.252 41.0494 28.0564C41.0819 27.861 41.0671 27.6606 41.0062 27.4721C40.9453 27.2836 40.8401 27.1125 40.6994 26.973L39.8277 26.1014L42.1844 23.7439C42.4188 23.9782 42.7367 24.1099 43.0682 24.1099C43.3996 24.1099 43.7175 23.9782 43.9519 23.7439L46.8477 20.848C47.0032 20.6932 47.1266 20.5092 47.2107 20.3065C47.2949 20.1039 47.3382 19.8866 47.3382 19.6672C47.3382 19.4478 47.2949 19.2305 47.2107 19.0279C47.1266 18.8252 47.0032 18.6412 46.8477 18.4864ZM40.1102 27.5572C40.1567 27.604 40.1914 27.6612 40.2115 27.724C40.2316 27.7869 40.2365 27.8536 40.2257 27.9187C40.215 27.9838 40.1889 28.0454 40.1497 28.0984C40.1105 28.1515 40.0593 28.1945 40.0002 28.2239L34.7661 30.8072C34.6857 30.8474 34.5946 30.8605 34.5062 30.8447C34.4178 30.8288 34.3369 30.7848 34.2755 30.7192C34.2141 30.6536 34.1756 30.57 34.1656 30.4807C34.1557 30.3915 34.1748 30.3014 34.2202 30.2239L37.0694 25.2555C37.1016 25.2003 37.1461 25.1533 37.1994 25.118C37.2527 25.0828 37.3134 25.0602 37.3768 25.0522C37.4402 25.0441 37.5046 25.0508 37.565 25.0716C37.6254 25.0924 37.6803 25.1268 37.7252 25.1722L40.1102 27.5572ZM46.2586 20.2539L43.3602 23.1497C43.2821 23.2278 43.1761 23.2717 43.0657 23.2717C42.9552 23.2717 42.8492 23.2278 42.7711 23.1497L42.1819 22.5605C42.1038 22.4824 42.0599 22.3764 42.0599 22.266C42.0599 22.1555 42.1038 22.0495 42.1819 21.9714L45.0777 19.0755C45.234 18.9193 45.4459 18.8316 45.6669 18.8316C45.8879 18.8316 46.0998 18.9193 46.2561 19.0755C46.4126 19.2315 46.5008 19.4432 46.5013 19.6642C46.5018 19.8852 46.4145 20.0973 46.2586 20.2539Z" fill="#DF1B3F"/>
</g>
<defs>
<clipPath id="clip0_6176_42238">
<rect width="50" height="50" fill="white"/>
</clipPath>
</defs>
</svg>
