<svg width="35" height="34" viewBox="0 0 35 34" fill="none" xmlns="http://www.w3.org/2000/svg">
<path fill-rule="evenodd" clip-rule="evenodd" d="M6.71627 26.2945C6.55883 26.3133 6.39921 26.2929 6.2515 26.2353C6.1038 26.1776 5.97255 26.0845 5.86935 25.9641C5.79779 25.8599 5.74815 25.7423 5.72344 25.6184C5.69873 25.4944 5.69947 25.3668 5.72561 25.2431C5.75175 25.1195 5.80275 25.0024 5.87551 24.8991C5.94826 24.7958 6.04126 24.7084 6.14883 24.6422C6.86334 23.7292 7.3536 22.6611 7.58012 21.5239C6.46405 20.1207 5.7646 18.432 5.56156 16.6503C5.35852 14.8686 5.66006 13.0657 6.43179 11.4472C7.20351 9.82875 8.41435 8.45987 9.92619 7.49673C11.438 6.5336 13.19 6.015 14.9822 6.00008C16.9276 5.99191 18.825 6.58828 20.4139 7.70307C22.1191 7.7866 23.7722 8.32593 25.2003 9.26671C26.6883 10.2469 27.8726 11.6239 28.6196 13.2421C29.3666 14.8602 29.6465 16.6552 29.4276 18.4241C29.2088 20.1931 28.4999 21.8655 27.3811 23.2527C27.8978 25.1338 28.4483 26.0913 28.8124 26.3794C28.9171 26.445 29.0078 26.5307 29.0791 26.6317C29.1503 26.7326 29.2008 26.8467 29.2276 26.9674C29.2544 27.088 29.257 27.2128 29.2351 27.3344C29.2133 27.4561 29.1675 27.5721 29.1004 27.6759C28.9938 27.7959 28.859 27.8874 28.7081 27.9421C28.5573 27.9968 28.3952 28.0131 28.2365 27.9894C26.8052 27.9894 24.2221 26.693 23.2736 26.1845C22.2081 26.5783 21.0811 26.7792 19.9452 26.7777C17.9995 26.7864 16.1015 26.1915 14.511 25.0787C13.5316 25.0426 12.5641 24.8495 11.6453 24.5066C10.7476 24.9981 8.13909 26.2945 6.71627 26.2945ZM14.9822 7.69482C16.5745 7.6791 18.1306 8.1567 19.4382 9.05891L19.6403 9.21177C20.9705 10.1935 21.957 11.5702 22.4594 13.1457C22.6993 13.8983 22.823 14.6778 22.8304 15.4581C22.8376 16.3086 22.7068 17.1598 22.438 17.9777C21.9218 19.5488 20.9232 20.9167 19.5844 21.8867C18.2457 22.8566 16.6351 23.3791 14.9822 23.3796H14.8213L14.7849 23.3789L13.5052 23.2417C12.9846 23.1408 12.4747 22.9857 11.9841 22.778L11.5945 22.617L11.2049 22.8034C10.3324 23.2876 9.42678 23.7095 8.4948 24.066C8.85109 23.2451 9.13449 22.3944 9.34171 21.5239L9.44334 21.0917L9.14692 20.7612C8.14925 19.6301 7.49785 18.2357 7.27042 16.7443C7.04299 15.2529 7.24912 13.7276 7.86423 12.3502C8.47935 10.9729 9.47748 9.80159 10.7396 8.97614C12.0016 8.15069 13.4744 7.7059 14.9822 7.69482ZM23.3837 24.3119L23.7479 24.5152C24.6174 24.9995 25.5203 25.4214 26.4495 25.7778C26.1009 24.9773 25.8176 24.1498 25.6026 23.3035L25.4925 22.8629L25.772 22.4561C26.6194 21.5025 27.2226 20.3572 27.5299 19.1188C27.8372 17.8804 27.8393 16.5858 27.536 15.3464C27.2328 14.107 26.6333 12.9598 25.789 12.0034C24.9448 11.047 23.881 10.31 22.6892 9.85577C23.61 11.0985 24.2152 12.5464 24.4529 14.0749C24.6905 15.6034 24.5535 17.1669 24.0536 18.6307C23.5537 20.0945 22.7059 21.415 21.5831 22.4784C20.4602 23.5418 19.096 24.3164 17.6077 24.7355C19.3865 25.2814 21.2997 25.1916 23.0195 24.4813L23.3837 24.3119Z" fill="#4C4C4C"/>
<circle cx="10.5" cy="16" r="1" fill="#DF1B3F"/>
<circle cx="14.5" cy="16" r="1" fill="#DF1B3F"/>
<circle cx="18.5" cy="16" r="1" fill="#DF1B3F"/>
</svg>
