<svg width="20" height="20" viewBox="0 0 20 20" fill="none" xmlns="http://www.w3.org/2000/svg">
<path fill-rule="evenodd" clip-rule="evenodd" d="M4.31246 4.31295C4.50772 4.11769 4.82431 4.11769 5.01957 4.31295L9.99935 9.29273L14.9791 4.31295C15.1744 4.11769 15.491 4.11769 15.6862 4.31295C15.8815 4.50821 15.8815 4.8248 15.6862 5.02006L10.7065 9.99984L15.6862 14.9796C15.8815 15.1749 15.8815 15.4915 15.6862 15.6867C15.491 15.882 15.1744 15.882 14.9791 15.6867L9.99935 10.7069L5.01957 15.6867C4.82431 15.882 4.50772 15.882 4.31246 15.6867C4.1172 15.4915 4.1172 15.1749 4.31246 14.9796L9.29224 9.99984L4.31246 5.02006C4.1172 4.8248 4.1172 4.50821 4.31246 4.31295Z" fill="#251E3D"/>
</svg>
