<svg width="12" height="12" viewBox="0 0 12 12" fill="none" xmlns="http://www.w3.org/2000/svg">
<path fill-rule="evenodd" clip-rule="evenodd" d="M0.312462 0.312951C0.507724 0.117688 0.824307 0.117688 1.01957 0.312951L5.99935 5.29273L10.9791 0.312951C11.1744 0.117688 11.491 0.117688 11.6862 0.31295C11.8815 0.508213 11.8815 0.824795 11.6862 1.02006L6.70646 5.99984L11.6862 10.9796C11.8815 11.1749 11.8815 11.4915 11.6862 11.6867C11.491 11.882 11.1744 11.882 10.9791 11.6867L5.99935 6.70694L1.01957 11.6867C0.824307 11.882 0.507724 11.882 0.312462 11.6867C0.1172 11.4915 0.1172 11.1749 0.312462 10.9796L5.29224 5.99984L0.312462 1.02006C0.1172 0.824795 0.1172 0.508213 0.312462 0.312951Z" fill="#251E3D"/>
</svg>
