<svg width="7" height="6" viewBox="0 0 7 6" fill="none" xmlns="http://www.w3.org/2000/svg">
<path d="M6.13551 5.87618L3.86251 3.60118L1.58951 5.87618C1.50784 5.94428 1.40367 5.97938 1.29744 5.97458C1.19122 5.96978 1.09063 5.92543 1.01544 5.85024C0.940257 5.77505 0.895906 5.67446 0.891106 5.56824C0.886307 5.46202 0.921406 5.35784 0.989506 5.27618L3.26251 3.00118L0.987506 0.728178C0.919406 0.646516 0.884307 0.542338 0.889106 0.436115C0.893906 0.329892 0.938257 0.229304 1.01344 0.154117C1.08863 0.078929 1.18922 0.0345779 1.29544 0.0297783C1.40167 0.0249787 1.50584 0.0600775 1.58751 0.128178L3.86251 2.40118L6.13551 0.126178C6.21717 0.0580775 6.32135 0.0229787 6.42757 0.0277783C6.53379 0.0325779 6.63438 0.076929 6.70957 0.152117C6.78475 0.227304 6.82911 0.327892 6.83391 0.434115C6.83871 0.540338 6.80361 0.644516 6.73551 0.726178L4.46251 3.00118L6.73751 5.27418C6.80561 5.35584 6.84071 5.46002 6.83591 5.56624C6.83111 5.67246 6.78676 5.77305 6.71157 5.84824C6.63638 5.92343 6.53579 5.96778 6.42957 5.97258C6.32335 5.97738 6.21917 5.94228 6.13751 5.87418L6.13551 5.87618Z" fill="white"/>
</svg>
