<svg width="11" height="10" viewBox="0 0 11 10" fill="none" xmlns="http://www.w3.org/2000/svg">
<path d="M1.33656 0.379943C1.1413 0.184681 0.824717 0.184681 0.629454 0.379943C0.434192 0.575205 0.434192 0.891787 0.629454 1.08705L4.54257 5.00016L0.629455 8.91328C0.434192 9.10854 0.434193 9.42512 0.629454 9.62038C0.824717 9.81565 1.1413 9.81565 1.33656 9.62038L5.24967 5.70727L9.16279 9.62038C9.35805 9.81565 9.67463 9.81565 9.86989 9.62038C10.0652 9.42512 10.0652 9.10854 9.86989 8.91328L5.95678 5.00016L9.86989 1.08705C10.0652 0.891787 10.0652 0.575205 9.86989 0.379943C9.67463 0.184681 9.35805 0.18468 9.16279 0.379943L5.24967 4.29306L1.33656 0.379943Z" fill="#666666" stroke="#666666" stroke-width="0.2" stroke-linecap="round" stroke-linejoin="round"/>
</svg>
