<svg width="14" height="14" viewBox="0 0 14 14" fill="none" xmlns="http://www.w3.org/2000/svg">
<path fill-rule="evenodd" clip-rule="evenodd" d="M0.175736 0.175736C0.410051 -0.0585786 0.789949 -0.0585786 1.02426 0.175736L7 6.15147L12.9757 0.175736C13.21 -0.0585786 13.5899 -0.0585786 13.8243 0.175736C14.0586 0.41005 14.0586 0.789949 13.8243 1.02426L7.84853 7L13.8243 12.9757C14.0586 13.21 14.0586 13.5899 13.8243 13.8243C13.5899 14.0586 13.21 14.0586 12.9757 13.8243L7 7.84853L1.02426 13.8243C0.789949 14.0586 0.410051 14.0586 0.175736 13.8243C-0.0585786 13.5899 -0.0585786 13.21 0.175736 12.9757L6.15147 7L0.175736 1.02426C-0.0585786 0.789949 -0.0585786 0.410051 0.175736 0.175736Z" fill="#333333"/>
</svg>
