<svg width="30" height="30" viewBox="0 0 30 30" fill="none" xmlns="http://www.w3.org/2000/svg">
<path fill-rule="evenodd" clip-rule="evenodd" d="M6.46967 6.46967C6.76256 6.17678 7.23744 6.17678 7.53033 6.46967L15 13.9393L22.4697 6.46967C22.7626 6.17678 23.2374 6.17678 23.5303 6.46967C23.8232 6.76256 23.8232 7.23744 23.5303 7.53033L16.0607 15L23.5303 22.4697C23.8232 22.7626 23.8232 23.2374 23.5303 23.5303C23.2374 23.8232 22.7626 23.8232 22.4697 23.5303L15 16.0607L7.53033 23.5303C7.23744 23.8232 6.76256 23.8232 6.46967 23.5303C6.17678 23.2374 6.17678 22.7626 6.46967 22.4697L13.9393 15L6.46967 7.53033C6.17678 7.23744 6.17678 6.76256 6.46967 6.46967Z" fill="#333333"/>
</svg>
