<svg width="12" height="12" viewBox="0 0 12 12" fill="none" xmlns="http://www.w3.org/2000/svg">
<path fill-rule="evenodd" clip-rule="evenodd" d="M0.312462 0.313439C0.507724 0.118177 0.824307 0.118177 1.01957 0.313439L5.99935 5.29322L10.9791 0.313439C11.1744 0.118177 11.491 0.118177 11.6862 0.313439C11.8815 0.508701 11.8815 0.825283 11.6862 1.02055L6.70646 6.00032L11.6862 10.9801C11.8815 11.1754 11.8815 11.4919 11.6862 11.6872C11.491 11.8825 11.1744 11.8825 10.9791 11.6872L5.99935 6.70743L1.01957 11.6872C0.824307 11.8825 0.507724 11.8825 0.312462 11.6872C0.1172 11.4919 0.1172 11.1754 0.312462 10.9801L5.29224 6.00033L0.312462 1.02055C0.1172 0.825283 0.1172 0.508701 0.312462 0.313439Z" fill="#251E3D"/>
</svg>
