<svg width="13" height="13" viewBox="0 0 13 13" fill="none" xmlns="http://www.w3.org/2000/svg">
<path d="M4.94504 5.4998C4.81317 5.51125 4.69121 5.57453 4.60592 5.67575C4.52063 5.77698 4.47895 5.9079 4.49004 6.0398L4.75004 9.0398C4.76012 9.16536 4.81721 9.28249 4.90991 9.36777C5.00261 9.45306 5.12408 9.50021 5.25004 9.4998H5.29504C5.3608 9.49415 5.42479 9.47554 5.48332 9.44504C5.54185 9.41453 5.59376 9.37274 5.63606 9.32208C5.67836 9.27141 5.71021 9.21287 5.72977 9.14984C5.74933 9.0868 5.75622 9.02052 5.75004 8.9548L5.48504 5.9548C5.47359 5.82293 5.41032 5.70098 5.30909 5.61568C5.20786 5.53039 5.07694 5.48872 4.94504 5.4998ZM7.01504 5.9698L6.75004 8.96981C6.7417 9.10006 6.78463 9.2284 6.86964 9.32743C6.95466 9.42646 7.07503 9.48832 7.20504 9.4998H7.25004C7.37521 9.50031 7.49601 9.45386 7.58859 9.36961C7.68116 9.28537 7.73878 9.16947 7.75004 9.0448L8.01004 6.0448C8.02131 5.9122 7.97944 5.78054 7.89364 5.6788C7.80785 5.57706 7.68515 5.51358 7.55254 5.5023C7.41993 5.49103 7.28828 5.5329 7.18654 5.6187C7.0848 5.7045 7.02131 5.8272 7.01004 5.9598L7.01504 5.9698Z" fill="#666666"/>
<path d="M1.79252 2.95025L1.74749 2.5H1.74787L1.80245 3.04943L1.79252 2.95025ZM7.95251 12.5H7.95113C8.44202 12.4979 8.91525 12.3153 9.28045 11.9866C9.65026 11.6538 9.88275 11.195 9.9325 10.7L9.93252 10.6998L10.6975 3.04975L10.7074 2.95152L9.95251 10.7C9.95248 10.7002 9.95246 10.7005 9.95243 10.7007C9.90254 11.1955 9.6701 11.6539 9.30046 11.9866C8.93064 12.3195 8.45004 12.5025 7.95251 12.5ZM4.56749 12.5C4.56153 12.5 4.55558 12.5 4.54962 12.5C4.55344 12.5 4.55725 12.5 4.56107 12.5L4.57 12.5L4.56749 12.5Z" fill="#666666" stroke="#666666"/>
</svg>
