<svg width="31" height="30" viewBox="0 0 31 30" fill="none" xmlns="http://www.w3.org/2000/svg">
<path d="M7.6998 1.5C7.8498 1.5 7.9998 1.5 7.9998 1.5H16.9998V7.05C16.9998 9 18.4998 10.5 20.4498 10.5H25.9998V19.95C25.9998 20.4 26.2998 20.7 26.7498 20.7C27.1998 20.7 27.4998 20.4 27.4998 19.95V9.75C27.4998 9.6 27.4998 9.6 27.4998 9.45C27.4998 9.3 27.3498 9.3 27.3498 9.15L18.3498 0.15C18.3498 0.15 18.1998 0 18.0498 0C17.8998 0 17.8998 0 17.7498 0H7.9998C7.8498 0 7.6998 0 7.5498 0C7.0998 0 6.7998 0.45 6.9498 0.9C6.9498 1.2 7.3998 1.5 7.6998 1.5ZM18.4998 2.55L24.9498 9H20.4498C19.3998 9 18.4998 8.1 18.4998 7.05V2.55ZM30.3498 28.65L1.8498 0.15C1.5498 -1.45286e-07 1.0998 -1.45286e-07 0.799798 0.15C0.499798 0.45 0.499798 1.05 0.649798 1.35L3.4998 4.05C3.4998 4.2 3.4998 4.35 3.4998 4.5V25.5C3.4998 28.05 5.4498 30 7.9998 30H22.9998C24.6498 30 26.2998 28.95 27.0498 27.6L29.2998 29.85C29.4498 30 29.5998 30 29.8998 30C30.0498 30 30.3498 29.85 30.4998 29.85C30.4998 29.55 30.4998 28.95 30.3498 28.65ZM22.9998 28.5H7.9998C6.3498 28.5 4.9998 27.15 4.9998 25.5V5.55L25.8498 26.4C25.3998 27.6 24.3498 28.5 22.9998 28.5Z" fill="#A4A4A4"/>
</svg>
