<svg width="10" height="12" viewBox="0 0 10 12" fill="none" xmlns="http://www.w3.org/2000/svg">
<path d="M8.01634 0H1.48301C0.709508 0 0.0830078 0.67125 0.0830078 1.5V10.5C0.0830078 11.3287 0.709508 12 1.48301 12H8.01634C8.78984 12 9.41634 11.3287 9.41634 10.5V1.5C9.41634 0.67125 8.78984 0 8.01634 0ZM8.48301 10.5C8.48301 10.7762 8.27417 11 8.01634 11H1.48301C1.22517 11 1.01634 10.7762 1.01634 10.5V1.5C1.01634 1.22375 1.22517 1 1.48301 1H8.01634C8.27417 1 8.48301 1.22375 8.48301 1.5V10.5ZM6.61634 8.5H2.88301C2.75924 8.5 2.64054 8.55268 2.55303 8.64645C2.46551 8.74021 2.41634 8.86739 2.41634 9C2.41634 9.13261 2.46551 9.25979 2.55303 9.35355C2.64054 9.44732 2.75924 9.5 2.88301 9.5H6.61634C6.74011 9.5 6.85881 9.44732 6.94633 9.35355C7.03384 9.25979 7.08301 9.13261 7.08301 9C7.08301 8.86739 7.03384 8.74021 6.94633 8.64645C6.85881 8.55268 6.74011 8.5 6.61634 8.5ZM6.61634 6.5H2.88301C2.75924 6.5 2.64054 6.55268 2.55303 6.64645C2.46551 6.74021 2.41634 6.86739 2.41634 7C2.41634 7.13261 2.46551 7.25979 2.55303 7.35355C2.64054 7.44732 2.75924 7.5 2.88301 7.5H6.61634C6.74011 7.5 6.85881 7.44732 6.94633 7.35355C7.03384 7.25979 7.08301 7.13261 7.08301 7C7.08301 6.86739 7.03384 6.74021 6.94633 6.64645C6.85881 6.55268 6.74011 6.5 6.61634 6.5ZM6.61634 4.5H2.88301C2.75924 4.5 2.64054 4.55268 2.55303 4.64645C2.46551 4.74021 2.41634 4.86739 2.41634 5C2.41634 5.13261 2.46551 5.25979 2.55303 5.35355C2.64054 5.44732 2.75924 5.5 2.88301 5.5H6.61634C6.74011 5.5 6.85881 5.44732 6.94633 5.35355C7.03384 5.25979 7.08301 5.13261 7.08301 5C7.08301 4.86739 7.03384 4.74021 6.94633 4.64645C6.85881 4.55268 6.74011 4.5 6.61634 4.5ZM2.88301 3.5H4.74967C4.87344 3.5 4.99214 3.44732 5.07966 3.35355C5.16717 3.25979 5.21634 3.13261 5.21634 3C5.21634 2.86739 5.16717 2.74021 5.07966 2.64645C4.99214 2.55268 4.87344 2.5 4.74967 2.5H2.88301C2.75924 2.5 2.64054 2.55268 2.55303 2.64645C2.46551 2.74021 2.41634 2.86739 2.41634 3C2.41634 3.13261 2.46551 3.25979 2.55303 3.35355C2.64054 3.44732 2.75924 3.5 2.88301 3.5Z" fill="#666666"/>
</svg>
