<svg width="35" height="34" viewBox="0 0 35 34" fill="none" xmlns="http://www.w3.org/2000/svg">
<path d="M28.9322 10.2427L22.3163 3.471C22.1187 3.26936 21.8829 3.10913 21.6226 2.99968C21.3623 2.89022 21.0829 2.83372 20.8005 2.8335H10.4163C9.85276 2.8335 9.31225 3.05738 8.91374 3.45589C8.51522 3.85441 8.29134 4.39491 8.29134 4.9585V5.66683H7.58301C7.01942 5.66683 6.47892 5.89071 6.08041 6.28923C5.68189 6.68774 5.45801 7.22824 5.45801 7.79183V11.3335C5.45801 11.5214 5.53264 11.7015 5.66547 11.8344C5.79831 11.9672 5.97848 12.0418 6.16634 12.0418C6.3542 12.0418 6.53437 11.9672 6.66721 11.8344C6.80005 11.7015 6.87467 11.5214 6.87467 11.3335V7.79183C6.87467 7.60397 6.9493 7.4238 7.08214 7.29096C7.21498 7.15812 7.39515 7.0835 7.58301 7.0835H8.29134V26.2085C8.29134 26.7721 8.51522 27.3126 8.91374 27.7111C9.31225 28.1096 9.85276 28.3335 10.4163 28.3335H25.2913V29.0418C25.2913 29.2297 25.2167 29.4099 25.0839 29.5427C24.951 29.6755 24.7709 29.7502 24.583 29.7502H7.58301C7.39515 29.7502 7.21498 29.6755 7.08214 29.5427C6.9493 29.4099 6.87467 29.2297 6.87467 29.0418V14.1668C6.87467 13.979 6.80005 13.7988 6.66721 13.666C6.53437 13.5331 6.3542 13.4585 6.16634 13.4585C5.97848 13.4585 5.79831 13.5331 5.66547 13.666C5.53264 13.7988 5.45801 13.979 5.45801 14.1668V29.0418C5.45801 29.6054 5.68189 30.1459 6.08041 30.5444C6.47892 30.9429 7.01942 31.1668 7.58301 31.1668H24.583C25.1466 31.1668 25.6871 30.9429 26.0856 30.5444C26.4841 30.1459 26.708 29.6054 26.708 29.0418V28.3335H27.4163C27.9799 28.3335 28.5204 28.1096 28.9189 27.7111C29.3175 27.3126 29.5413 26.7721 29.5413 26.2085V11.7231C29.5429 11.4483 29.4898 11.1759 29.3852 10.9218C29.2807 10.6676 29.1267 10.4368 28.9322 10.2427ZM22.458 5.66683L27.3313 10.6252H23.1663C22.9785 10.6252 22.7983 10.5505 22.6655 10.4177C22.5326 10.2849 22.458 10.1047 22.458 9.91683V5.66683ZM28.1247 26.2085C28.1247 26.3964 28.05 26.5765 27.9172 26.7094C27.7844 26.8422 27.6042 26.9168 27.4163 26.9168H10.4163C10.2285 26.9168 10.0483 26.8422 9.91547 26.7094C9.78264 26.5765 9.70801 26.3964 9.70801 26.2085V4.9585C9.70801 4.77063 9.78264 4.59047 9.91547 4.45763C10.0483 4.32479 10.2285 4.25016 10.4163 4.25016H20.8005C20.8831 4.25252 20.9646 4.2693 21.0413 4.29975V9.91683C21.0413 10.4804 21.2652 11.0209 21.6637 11.4194C22.0623 11.8179 22.6028 12.0418 23.1663 12.0418H28.1247V26.2085Z" fill="#4C4C4C"/>
<path d="M17.0328 20.1741C16.935 20.2731 16.8684 20.3987 16.8416 20.5353L16.3387 23.0428C16.3174 23.1469 16.3198 23.2545 16.3457 23.3575C16.3717 23.4606 16.4205 23.5565 16.4885 23.6381C16.5565 23.7197 16.642 23.785 16.7387 23.8291C16.8354 23.8732 16.9408 23.895 17.047 23.8928H17.1887L19.6962 23.3899C19.8328 23.363 19.9584 23.2965 20.0574 23.1986L26.567 16.682C26.6989 16.5493 26.773 16.3697 26.773 16.1826C26.773 15.9955 26.6989 15.8159 26.567 15.6832L24.5837 13.6645C24.4509 13.5325 24.2714 13.4585 24.0843 13.4585C23.8972 13.4585 23.7176 13.5325 23.5849 13.6645L17.0328 20.1741ZM19.1932 22.0086L17.9395 22.2566L18.2087 21.0241L22.062 17.1707L23.0678 18.1766L19.1932 22.0086ZM25.0512 16.1507L24.0453 17.1495L23.0466 16.1507L24.0453 15.1449L25.0512 16.1507ZM12.542 14.217C12.542 14.0291 12.6166 13.8489 12.7495 13.7161C12.8823 13.5833 13.0625 13.5086 13.2503 13.5086H19.6253C19.8132 13.5086 19.9934 13.5833 20.1262 13.7161C20.259 13.8489 20.3337 14.0291 20.3337 14.217C20.3337 14.4048 20.259 14.585 20.1262 14.7178C19.9934 14.8507 19.8132 14.9253 19.6253 14.9253H13.2503C13.0625 14.9253 12.8823 14.8507 12.7495 14.7178C12.6166 14.585 12.542 14.4048 12.542 14.217ZM12.542 17.0503C12.542 16.8624 12.6166 16.6823 12.7495 16.5494C12.8823 16.4166 13.0625 16.342 13.2503 16.342H16.792C16.9799 16.342 17.16 16.4166 17.2929 16.5494C17.4257 16.6823 17.5003 16.8624 17.5003 17.0503C17.5003 17.2382 17.4257 17.4183 17.2929 17.5512C17.16 17.684 16.9799 17.7586 16.792 17.7586H13.2503C13.0625 17.7586 12.8823 17.684 12.7495 17.5512C12.6166 17.4183 12.542 17.2382 12.542 17.0503ZM15.3753 19.8836C15.3753 20.0715 15.3007 20.2517 15.1679 20.3845C15.035 20.5173 14.8549 20.592 14.667 20.592H13.2503C13.0625 20.592 12.8823 20.5173 12.7495 20.3845C12.6166 20.2517 12.542 20.0715 12.542 19.8836C12.542 19.6958 12.6166 19.5156 12.7495 19.3828C12.8823 19.2499 13.0625 19.1753 13.2503 19.1753H14.667C14.8549 19.1753 15.035 19.2499 15.1679 19.3828C15.3007 19.5156 15.3753 19.6958 15.3753 19.8836Z" fill="#DF1B3F"/>
</svg>
