<svg width="35" height="34" viewBox="0 0 35 34" fill="none" xmlns="http://www.w3.org/2000/svg">
<path d="M28.9322 10.2356L22.3163 3.471C22.1187 3.26936 21.8829 3.10913 21.6226 2.99968C21.3623 2.89022 21.0829 2.83372 20.8005 2.8335H10.4163C9.85276 2.8335 9.31225 3.05738 8.91374 3.45589C8.51522 3.85441 8.29134 4.39491 8.29134 4.9585V5.66683H7.58301C7.01942 5.66683 6.47892 5.89071 6.08041 6.28923C5.68189 6.68774 5.45801 7.22824 5.45801 7.79183V11.3335C5.45801 11.5214 5.53264 11.7015 5.66547 11.8344C5.79831 11.9672 5.97848 12.0418 6.16634 12.0418C6.3542 12.0418 6.53437 11.9672 6.66721 11.8344C6.80005 11.7015 6.87467 11.5214 6.87467 11.3335V7.79183C6.87467 7.60397 6.9493 7.4238 7.08214 7.29096C7.21498 7.15812 7.39515 7.0835 7.58301 7.0835H8.29134V26.2085C8.29134 26.7721 8.51522 27.3126 8.91374 27.7111C9.31225 28.1096 9.85276 28.3335 10.4163 28.3335H25.2913V29.0418C25.2913 29.2297 25.2167 29.4099 25.0839 29.5427C24.951 29.6755 24.7709 29.7502 24.583 29.7502H7.58301C7.39515 29.7502 7.21498 29.6755 7.08214 29.5427C6.9493 29.4099 6.87467 29.2297 6.87467 29.0418V14.1668C6.87467 13.979 6.80005 13.7988 6.66721 13.666C6.53437 13.5331 6.3542 13.4585 6.16634 13.4585C5.97848 13.4585 5.79831 13.5331 5.66547 13.666C5.53264 13.7988 5.45801 13.979 5.45801 14.1668V29.0418C5.45801 29.6054 5.68189 30.1459 6.08041 30.5444C6.47892 30.9429 7.01942 31.1668 7.58301 31.1668H24.583C25.1466 31.1668 25.6871 30.9429 26.0856 30.5444C26.4841 30.1459 26.708 29.6054 26.708 29.0418V28.3335H27.4163C27.9799 28.3335 28.5204 28.1096 28.9189 27.7111C29.3175 27.3126 29.5413 26.7721 29.5413 26.2085V11.7231C29.5409 11.1666 29.3222 10.6325 28.9322 10.2356ZM22.458 5.66683L27.3313 10.6252H23.1663C22.9785 10.6252 22.7983 10.5505 22.6655 10.4177C22.5326 10.2849 22.458 10.1047 22.458 9.91683V5.66683ZM28.1247 26.2085C28.1247 26.3964 28.05 26.5765 27.9172 26.7094C27.7844 26.8422 27.6042 26.9168 27.4163 26.9168H10.4163C10.2285 26.9168 10.0483 26.8422 9.91547 26.7094C9.78264 26.5765 9.70801 26.3964 9.70801 26.2085V4.9585C9.70801 4.77063 9.78264 4.59047 9.91547 4.45763C10.0483 4.32479 10.2285 4.25016 10.4163 4.25016H20.8005C20.8831 4.25252 20.9646 4.2693 21.0413 4.29975V9.91683C21.0413 10.4804 21.2652 11.0209 21.6637 11.4194C22.0623 11.8179 22.6028 12.0418 23.1663 12.0418H28.1247V26.2085Z" fill="#4C4C4C"/>
<path d="M21.7719 17.7082C22.2317 17.0951 22.4803 16.3495 22.4803 15.5832C22.4803 14.6439 22.1071 13.743 21.4429 13.0788C20.7787 12.4146 19.8779 12.0415 18.9386 12.0415C17.9993 12.0415 17.0984 12.4146 16.4343 13.0788C15.7701 13.743 15.3969 14.6439 15.3969 15.5832C15.3969 16.3495 15.6455 17.0951 16.1053 17.7082L14.6886 23.2048C14.6536 23.3432 14.6613 23.489 14.7106 23.623C14.7599 23.757 14.8485 23.8729 14.9648 23.9557C15.0827 24.0364 15.2222 24.0796 15.365 24.0796C15.5079 24.0796 15.6474 24.0364 15.7653 23.9557L17.4086 22.8648L18.4144 23.8707C18.4803 23.9371 18.5586 23.9898 18.6449 24.0257C18.7312 24.0617 18.8238 24.0802 18.9173 24.0802C19.0108 24.0802 19.1034 24.0617 19.1897 24.0257C19.2761 23.9898 19.3544 23.9371 19.4203 23.8707L20.4261 22.8648L22.0694 23.9557C22.1898 24.0397 22.3334 24.0843 22.4803 24.0832C22.6271 24.0843 22.7707 24.0397 22.8911 23.9557C23.0113 23.8757 23.1042 23.761 23.1573 23.6268C23.2105 23.4926 23.2214 23.3454 23.1886 23.2048L21.7719 17.7082ZM18.9386 13.4582C19.3589 13.4582 19.7697 13.5828 20.1192 13.8163C20.4686 14.0498 20.741 14.3817 20.9018 14.77C21.0627 15.1583 21.1048 15.5855 21.0228 15.9977C20.9408 16.4099 20.7384 16.7886 20.4412 17.0858C20.144 17.383 19.7654 17.5853 19.3532 17.6673C18.9409 17.7493 18.5137 17.7073 18.1254 17.5464C17.7371 17.3856 17.4052 17.1132 17.1717 16.7638C16.9382 16.4143 16.8136 16.0035 16.8136 15.5832C16.8136 15.0196 17.0375 14.4791 17.436 14.0806C17.8345 13.6821 18.375 13.4582 18.9386 13.4582ZM20.7448 21.3703C20.6091 21.2793 20.4461 21.2381 20.2834 21.2536C20.1208 21.2691 19.9685 21.3403 19.8523 21.4553L18.9386 22.3761L18.0248 21.4553C17.9087 21.3403 17.7564 21.2691 17.5937 21.2536C17.4311 21.2381 17.2681 21.2793 17.1323 21.3703L16.5303 21.7669L17.2953 18.6998C17.7982 18.9783 18.3637 19.1244 18.9386 19.1244C19.5135 19.1244 20.079 18.9783 20.5819 18.6998L21.3469 21.7669L20.7448 21.3703Z" fill="#DF1B3F"/>
</svg>
