<svg width="20" height="21" viewBox="0 0 20 21" fill="none" xmlns="http://www.w3.org/2000/svg">
<path fill-rule="evenodd" clip-rule="evenodd" d="M13.3145 10.8588C13.3272 10.7407 13.3337 10.6208 13.3337 10.4993C13.3337 8.6584 11.8413 7.16602 10.0003 7.16602C9.87888 7.16602 9.75896 7.17251 9.64088 7.18517L10.7421 8.28639C11.4341 8.51825 11.9814 9.06559 12.2133 9.75757L13.3145 10.8588ZM7.83684 9.62377C7.72731 9.89414 7.66699 10.1897 7.66699 10.4993C7.66699 11.788 8.71166 12.8327 10.0003 12.8327C10.31 12.8327 10.6055 12.7724 10.8759 12.6628L11.6242 13.4111C11.1437 13.6796 10.5899 13.8327 10.0003 13.8327C8.15938 13.8327 6.66699 12.3403 6.66699 10.4993C6.66699 9.9098 6.82004 9.356 7.08858 8.87551L7.83684 9.62377Z" fill="#333333"/>
<path fill-rule="evenodd" clip-rule="evenodd" d="M13.2966 15.0843L12.5556 14.3433C11.7494 14.7453 10.8875 15 10.0003 15C8.68473 15 7.425 14.44 6.31978 13.6701C5.21773 12.9024 4.30766 11.9524 3.70213 11.237C3.27539 10.7328 3.2334 10.6476 3.2334 10.5C3.2334 10.3524 3.27539 10.2672 3.70213 9.76302C4.22351 9.14703 4.97065 8.35714 5.87172 7.65942L5.15938 6.94708C4.22925 7.68223 3.46782 8.492 2.93884 9.11696L2.88087 9.18524C2.54583 9.57925 2.2334 9.94668 2.2334 10.5C2.2334 11.0533 2.54583 11.4207 2.88087 11.8148L2.93884 11.883C3.57556 12.6353 4.54906 13.6553 5.74818 14.4906C6.94413 15.3238 8.40319 16 10.0003 16C11.1935 16 12.3096 15.6226 13.2966 15.0843ZM7.85013 5.39519C8.52759 5.14977 9.24865 5 10.0003 5C11.5974 5 13.0565 5.67621 14.2524 6.50936C15.4515 7.34471 16.425 8.36471 17.0617 9.11696L17.1197 9.18524C17.4548 9.57925 17.7672 9.94668 17.7672 10.5C17.7672 11.0533 17.4548 11.4208 17.1197 11.8148L17.0617 11.883C16.7141 12.2937 16.2661 12.7842 15.7359 13.2809L15.0283 12.5734C15.5327 12.1032 15.9624 11.634 16.2985 11.237C16.7252 10.7328 16.7672 10.6476 16.7672 10.5C16.7672 10.3524 16.7252 10.2672 16.2985 9.76302C15.6929 9.04761 14.7829 8.09762 13.6808 7.32989C12.5756 6.55995 11.3159 6 10.0003 6C9.54039 6 9.08732 6.06843 8.64528 6.19034L7.85013 5.39519Z" fill="#333333"/>
<path d="M4.16699 2.16602L17.5003 15.4993" stroke="#333333"/>
</svg>
