<svg width="20" height="20" viewBox="0 0 20 20" fill="none" xmlns="http://www.w3.org/2000/svg">
<path d="M6.25033 17.4998H3.75033C3.06027 17.4991 2.50109 16.9399 2.50033 16.2498V13.7498C2.50033 13.5197 2.31376 13.3332 2.08366 13.3332C1.85356 13.3332 1.66699 13.5197 1.66699 13.7498V16.2498C1.66806 17.4 2.60017 18.3321 3.75033 18.3332H6.25033C6.48043 18.3332 6.66699 18.1466 6.66699 17.9165C6.66699 17.6864 6.48043 17.4998 6.25033 17.4998ZM2.08366 6.6665C2.31361 6.66635 2.50048 6.47984 2.50033 6.24984V3.74984C2.50109 3.05978 3.06027 2.5006 3.75033 2.49984H6.25033C6.48043 2.49984 6.66699 2.31327 6.66699 2.08317C6.66699 1.85307 6.48043 1.6665 6.25033 1.6665H3.75033C2.60017 1.66757 1.66806 2.59968 1.66699 3.74984V6.25035C1.66714 6.4803 1.85366 6.66666 2.08366 6.6665ZM15.0003 9.99984C15.0003 9.76974 14.8138 9.58317 14.5837 9.58317H13.2916C13.1019 8.07911 11.9211 6.89829 10.417 6.70852V5.4165C10.417 5.1864 10.2304 4.99984 10.0003 4.99984C9.77022 4.99984 9.58366 5.1864 9.58366 5.4165V6.70852C8.0796 6.89829 6.89877 8.07911 6.709 9.58317H5.41699C5.18689 9.58317 5.00033 9.76974 5.00033 9.99984C5.00033 10.2299 5.18689 10.4165 5.41699 10.4165H6.709C6.89877 11.9206 8.0796 13.1014 9.58366 13.2912V14.5836C9.58381 14.8136 9.77032 15 10.0003 14.9998C10.2303 14.9997 10.4171 14.8132 10.417 14.5832V13.2908C11.9202 13.0999 13.1004 11.9197 13.2913 10.4165H14.5837C14.8138 10.4165 15.0003 10.2299 15.0003 9.99984ZM10.0003 12.4998C8.61961 12.4998 7.50033 11.3806 7.50033 9.99984C7.50033 8.61912 8.61961 7.49984 10.0003 7.49984C11.3804 7.50136 12.4988 8.61973 12.5003 9.99984C12.5003 11.3806 11.381 12.4998 10.0003 12.4998ZM16.2503 1.6665H13.7503C13.5202 1.6665 13.3337 1.85307 13.3337 2.08317C13.3337 2.31327 13.5202 2.49984 13.7503 2.49984H16.2503C16.9404 2.5006 17.4996 3.05978 17.5003 3.74984V6.25035C17.5005 6.4803 17.687 6.66666 17.917 6.6665C18.1469 6.66635 18.3338 6.47984 18.3337 6.24984V3.74984C18.3326 2.59968 17.4005 1.66757 16.2503 1.6665ZM17.917 13.3332C17.6869 13.3332 17.5003 13.5197 17.5003 13.7498V16.2498C17.4996 16.9399 16.9404 17.4991 16.2503 17.4998H13.7503C13.5202 17.4998 13.3337 17.6864 13.3337 17.9165C13.3337 18.1466 13.5202 18.3332 13.7503 18.3332H16.2503C17.4005 18.3321 18.3326 17.4 18.3337 16.2498V13.7498C18.3337 13.5197 18.1471 13.3332 17.917 13.3332Z" fill="#DF1B3F" stroke="#DF1B3F" stroke-width="0.5"/>
</svg>
