<svg width="20" height="20" viewBox="0 0 20 20" fill="none" xmlns="http://www.w3.org/2000/svg">
<path fill-rule="evenodd" clip-rule="evenodd" d="M9.72061 15.5262L4.77782 18.2341C4.38318 18.4392 3.89699 18.294 3.67942 17.9061C3.61648 17.7859 3.58252 17.6527 3.58026 17.5171V5.5186C3.58026 3.23027 5.14395 2.31494 7.39414 2.31494H12.6802C14.8617 2.31494 16.4941 3.16925 16.4941 5.36605V17.5171C16.4941 17.7335 16.4081 17.9411 16.255 18.0942C16.102 18.2473 15.8944 18.3332 15.6779 18.3332C15.5398 18.3311 15.4041 18.2971 15.2813 18.2341L10.3079 15.5262C10.1247 15.4272 9.90388 15.4272 9.72061 15.5262Z" stroke="#A4A4A4" stroke-width="1.5" stroke-linecap="round" stroke-linejoin="round"/>
<path d="M6.97498 7.76904H13.0541" stroke="#A4A4A4" stroke-width="1.5" stroke-linecap="round" stroke-linejoin="round"/>
</svg>
