<svg width="20" height="20" viewBox="0 0 20 20" fill="none" xmlns="http://www.w3.org/2000/svg">
<path d="M5.37459 3.06505C8.67459 0.865049 13.0738 1.29922 15.8913 4.09838C17.4654 5.67422 18.3404 7.80672 18.3322 10.0317C18.3163 13.9984 15.4988 17.4067 11.6071 18.1742C7.70709 18.9409 3.80793 16.8484 2.29876 13.1742C0.782094 9.50672 2.06626 5.27338 5.37459 3.06505ZM12.9154 6.87338C12.8079 6.82338 12.6821 6.80672 12.5663 6.84838L8.44876 8.14838C8.30709 8.19005 8.19876 8.30671 8.15793 8.44838L6.84876 12.565C6.82376 12.6484 6.82376 12.74 6.84876 12.8234C6.88209 12.94 6.96626 13.04 7.07459 13.0984C7.19043 13.165 7.31626 13.1742 7.43209 13.14L11.5496 11.84C11.6913 11.7984 11.7996 11.69 11.8488 11.5484L13.1404 7.43172C13.1746 7.34088 13.1746 7.24005 13.1404 7.14838C13.1079 7.03172 13.0238 6.93172 12.9154 6.87338Z" fill="url(#paint0_linear_19_1831)"/>
<defs>
<linearGradient id="paint0_linear_19_1831" x1="1.66644" y1="8.59782" x2="18.6636" y2="8.59782" gradientUnits="userSpaceOnUse">
<stop stop-color="#DF1B3F"/>
<stop offset="1" stop-color="#E95048"/>
</linearGradient>
</defs>
</svg>
