<svg width="20" height="20" viewBox="0 0 20 20" fill="none" xmlns="http://www.w3.org/2000/svg">
<path d="M7.61976 17.3185V14.7628C7.61974 14.1152 8.14637 13.589 8.79868 13.5849H11.1938C11.849 13.5849 12.3802 14.1123 12.3802 14.7628V17.3111C12.3802 17.8728 12.8367 18.3293 13.4024 18.3334H15.0365C15.7997 18.3354 16.5323 18.0357 17.0726 17.5007C17.613 16.9656 17.9166 16.239 17.9166 15.4814V8.22162C17.9166 7.60957 17.6434 7.02901 17.1705 6.63633L11.6191 2.22864C10.6487 1.45768 9.26279 1.48259 8.32114 2.2879L2.88916 6.63633C2.39393 7.01743 2.09794 7.59972 2.08331 8.22162V15.4739C2.08331 17.0532 3.3728 18.3334 4.96346 18.3334H6.56022C6.83262 18.3354 7.09455 18.2293 7.28787 18.0388C7.4812 17.8482 7.58992 17.589 7.58991 17.3185H7.61976Z" fill="url(#paint0_linear_19_1825)"/>
<defs>
<linearGradient id="paint0_linear_19_1825" x1="2.08331" y1="8.59858" x2="18.2315" y2="8.59858" gradientUnits="userSpaceOnUse">
<stop stop-color="#DF1B3F"/>
<stop offset="1" stop-color="#E95048"/>
</linearGradient>
</defs>
</svg>
