<svg width="20" height="20" viewBox="0 0 20 20" fill="none" xmlns="http://www.w3.org/2000/svg">
<path d="M13.4925 1.66675C16.0667 1.66675 17.5 3.15008 17.5 5.69175V14.3001C17.5 16.8834 16.0667 18.3334 13.4925 18.3334H6.50833C3.975 18.3334 2.5 16.8834 2.5 14.3001V5.69175C2.5 3.15008 3.975 1.66675 6.50833 1.66675H13.4925ZM6.73333 13.1167C6.48333 13.0917 6.24167 13.2084 6.10833 13.4251C5.975 13.6334 5.975 13.9084 6.10833 14.1251C6.24167 14.3334 6.48333 14.4584 6.73333 14.4251H13.2667C13.5992 14.3917 13.85 14.1076 13.85 13.7751C13.85 13.4334 13.5992 13.1501 13.2667 13.1167H6.73333ZM13.2667 9.31591H6.73333C6.37417 9.31591 6.08333 9.60841 6.08333 9.96675C6.08333 10.3251 6.37417 10.6167 6.73333 10.6167H13.2667C13.625 10.6167 13.9167 10.3251 13.9167 9.96675C13.9167 9.60841 13.625 9.31591 13.2667 9.31591ZM9.22417 5.54175H6.73333V5.55008C6.37417 5.55008 6.08333 5.84175 6.08333 6.20008C6.08333 6.55841 6.37417 6.85008 6.73333 6.85008H9.22417C9.58333 6.85008 9.875 6.55841 9.875 6.19091C9.875 5.83341 9.58333 5.54175 9.22417 5.54175Z" fill="url(#paint0_linear_19_1828)"/>
<defs>
<linearGradient id="paint0_linear_19_1828" x1="2.5" y1="8.59857" x2="17.7983" y2="8.59857" gradientUnits="userSpaceOnUse">
<stop stop-color="#DF1B3F"/>
<stop offset="1" stop-color="#E95048"/>
</linearGradient>
</defs>
</svg>
