<svg width="20" height="20" viewBox="0 0 20 20" fill="none" xmlns="http://www.w3.org/2000/svg">
<path d="M12.5583 1.66675C14.8166 1.66675 16.6416 2.55841 16.6666 4.82508V17.4751C16.6666 17.6167 16.6333 17.7584 16.5666 17.8834C16.4583 18.0834 16.2749 18.2334 16.0499 18.3001C15.8333 18.3667 15.5916 18.3334 15.3916 18.2167L9.99159 15.5167L4.58325 18.2167C4.45909 18.2826 4.31659 18.3251 4.17492 18.3251C3.70825 18.3251 3.33325 17.9417 3.33325 17.4751V4.82508C3.33325 2.55841 5.16659 1.66675 7.41659 1.66675H12.5583ZM13.1249 6.70008H6.84992C6.49159 6.70008 6.19992 6.99175 6.19992 7.35841C6.19992 7.72425 6.49159 8.01675 6.84992 8.01675H13.1249C13.4833 8.01675 13.7749 7.72425 13.7749 7.35841C13.7749 6.99175 13.4833 6.70008 13.1249 6.70008Z" fill="url(#paint0_linear_19_1851)"/>
<defs>
<linearGradient id="paint0_linear_19_1851" x1="3.33325" y1="8.59883" x2="16.9317" y2="8.59883" gradientUnits="userSpaceOnUse">
<stop stop-color="#DF1B3F"/>
<stop offset="1" stop-color="#E95048"/>
</linearGradient>
</defs>
</svg>
