<svg width="16" height="18" viewBox="0 0 16 18" fill="none" xmlns="http://www.w3.org/2000/svg">
<path d="M11.1175 0.666992C13.6917 0.666992 15.125 2.15033 15.125 4.69199V13.3003C15.125 15.8837 13.6917 17.3337 11.1175 17.3337H4.13333C1.6 17.3337 0.125 15.8837 0.125 13.3003V4.69199C0.125 2.15033 1.6 0.666992 4.13333 0.666992H11.1175ZM4.35833 12.117C4.10833 12.092 3.86667 12.2087 3.73333 12.4253C3.6 12.6337 3.6 12.9087 3.73333 13.1253C3.86667 13.3337 4.10833 13.4587 4.35833 13.4253H10.8917C11.2242 13.392 11.475 13.1078 11.475 12.7753C11.475 12.4337 11.2242 12.1503 10.8917 12.117H4.35833ZM10.8917 8.31616H4.35833C3.99917 8.31616 3.70833 8.60866 3.70833 8.96699C3.70833 9.32533 3.99917 9.61699 4.35833 9.61699H10.8917C11.25 9.61699 11.5417 9.32533 11.5417 8.96699C11.5417 8.60866 11.25 8.31616 10.8917 8.31616ZM6.84917 4.54199H4.35833V4.55033C3.99917 4.55033 3.70833 4.84199 3.70833 5.20033C3.70833 5.55866 3.99917 5.85033 4.35833 5.85033H6.84917C7.20833 5.85033 7.5 5.55866 7.5 5.19116C7.5 4.83366 7.20833 4.54199 6.84917 4.54199Z" fill="url(#paint0_linear_12142_10068)"/>
<defs>
<linearGradient id="paint0_linear_12142_10068" x1="0.125" y1="7.59881" x2="15.4233" y2="7.59881" gradientUnits="userSpaceOnUse">
<stop stop-color="#DF1B3F"/>
<stop offset="1" stop-color="#E95048"/>
</linearGradient>
</defs>
</svg>
