<svg width="12" height="12" viewBox="0 0 12 12" fill="none" xmlns="http://www.w3.org/2000/svg">
<path d="M5.99935 11.3337C3.05802 11.3337 0.666016 8.94166 0.666016 6.00033C0.666016 5.75499 0.865127 5.55588 1.11046 5.55588C1.35579 5.55588 1.5549 5.75499 1.5549 6.00033C1.5549 8.45099 3.54868 10.4448 5.99935 10.4448C8.45002 10.4448 10.4438 8.45099 10.4438 6.00033C10.4438 3.54966 8.45002 1.55588 5.99935 1.55588C4.6109 1.55588 3.33002 2.1861 2.48557 3.28388C2.33535 3.47944 2.05624 3.5141 1.86246 3.36566C1.66779 3.21544 1.63135 2.93721 1.78068 2.74255C2.79579 1.42344 4.33268 0.666992 5.99935 0.666992C8.94068 0.666992 11.3327 3.05899 11.3327 6.00033C11.3327 8.94166 8.94068 11.3337 5.99935 11.3337Z" fill="#A4A4A4"/>
<path d="M4.08629 3.6821H1.96007C1.71474 3.6821 1.51562 3.48299 1.51562 3.23766V1.11144C1.51562 0.866103 1.71474 0.666992 1.96007 0.666992C2.2054 0.666992 2.40451 0.866103 2.40451 1.11144V2.79321H4.08629C4.33162 2.79321 4.53074 2.99233 4.53074 3.23766C4.53074 3.48299 4.33162 3.6821 4.08629 3.6821Z" fill="#A4A4A4"/>
</svg>
