<svg width="14" height="18" viewBox="0 0 14 18" fill="none" xmlns="http://www.w3.org/2000/svg">
<path d="M7 0.25C5.3424 0.25 3.75269 0.90848 2.58058 2.08058C1.40848 3.25269 0.75 4.8424 0.75 6.5C0.75 12.3375 6.375 17.3813 6.5875 17.5938C6.70156 17.6939 6.84818 17.7492 7 17.7492C7.15182 17.7492 7.29844 17.6939 7.4125 17.5938C7.65625 17.3813 13.25 12.3375 13.25 6.5C13.25 5.67924 13.0883 4.86651 12.7742 4.10823C12.4602 3.34994 11.9998 2.66095 11.4194 2.08058C10.8391 1.50022 10.1501 1.03984 9.39177 0.725753C8.63349 0.411661 7.82076 0.25 7 0.25ZM7 16.2625C5.75 15.0125 2 10.9062 2 6.5C2 5.17392 2.52678 3.90215 3.46447 2.96447C4.40215 2.02678 5.67392 1.5 7 1.5C8.32608 1.5 9.59785 2.02678 10.5355 2.96447C11.4732 3.90215 12 5.17392 12 6.5C12 10.875 8.25 14.9938 7 16.2625Z" fill="#DF1B3F"/>
<path d="M7 4C6.50555 4 6.0222 4.14662 5.61108 4.42133C5.19995 4.69603 4.87952 5.08648 4.6903 5.54329C4.50108 6.00011 4.45157 6.50277 4.54804 6.98773C4.6445 7.47268 4.8826 7.91814 5.23223 8.26777C5.58187 8.6174 6.02732 8.8555 6.51228 8.95196C6.99723 9.04843 7.49989 8.99892 7.95671 8.8097C8.41352 8.62048 8.80397 8.30005 9.07868 7.88893C9.35338 7.4778 9.5 6.99445 9.5 6.5C9.5 5.83696 9.23661 5.20107 8.76777 4.73223C8.29893 4.26339 7.66304 4 7 4ZM7 7.75C6.75277 7.75 6.5111 7.67669 6.30554 7.53934C6.09998 7.40199 5.93976 7.20676 5.84515 6.97835C5.75054 6.74995 5.72579 6.49861 5.77402 6.25614C5.82225 6.01366 5.9413 5.79093 6.11612 5.61612C6.29093 5.4413 6.51366 5.32225 6.75614 5.27402C6.99861 5.22579 7.24995 5.25054 7.47836 5.34515C7.70676 5.43976 7.90199 5.59998 8.03934 5.80554C8.17669 6.0111 8.25 6.25277 8.25 6.5C8.25 6.83152 8.11831 7.14946 7.88388 7.38388C7.64946 7.6183 7.33152 7.75 7 7.75Z" fill="#DF1B3F"/>
</svg>
