<svg width="12" height="16" viewBox="0 0 12 16" fill="none" xmlns="http://www.w3.org/2000/svg">
<path d="M6 0.125C4.50816 0.125 3.07742 0.717632 2.02252 1.77252C0.967632 2.82742 0.375 4.25816 0.375 5.75C0.375 11.0037 5.4375 15.5431 5.62875 15.7344C5.7314 15.8246 5.86336 15.8743 6 15.8743C6.13664 15.8743 6.2686 15.8246 6.37125 15.7344C6.59062 15.5431 11.625 11.0037 11.625 5.75C11.625 5.01131 11.4795 4.27986 11.1968 3.59741C10.9141 2.91495 10.4998 2.29485 9.97748 1.77252C9.45515 1.25019 8.83505 0.83586 8.15259 0.553178C7.47014 0.270495 6.73869 0.125 6 0.125ZM6 14.5362C4.875 13.4112 1.5 9.71562 1.5 5.75C1.5 4.55653 1.97411 3.41193 2.81802 2.56802C3.66193 1.72411 4.80653 1.25 6 1.25C7.19347 1.25 8.33807 1.72411 9.18198 2.56802C10.0259 3.41193 10.5 4.55653 10.5 5.75C10.5 9.6875 7.125 13.3944 6 14.5362Z" fill="#A4A4A4"/>
<path d="M6 3.5C5.55499 3.5 5.11998 3.63196 4.74997 3.87919C4.37996 4.12643 4.09157 4.47783 3.92127 4.88896C3.75097 5.3001 3.70642 5.7525 3.79323 6.18895C3.88005 6.62541 4.09434 7.02632 4.40901 7.34099C4.72368 7.65566 5.12459 7.86995 5.56105 7.95677C5.99751 8.04358 6.4499 7.99903 6.86104 7.82873C7.27217 7.65843 7.62357 7.37004 7.87081 7.00003C8.11804 6.63002 8.25 6.19501 8.25 5.75C8.25 5.15326 8.01295 4.58097 7.59099 4.15901C7.16903 3.73705 6.59674 3.5 6 3.5ZM6 6.875C5.7775 6.875 5.55999 6.80902 5.37498 6.6854C5.18998 6.56179 5.04579 6.38609 4.96064 6.18052C4.87549 5.97495 4.85321 5.74875 4.89662 5.53052C4.94003 5.31229 5.04717 5.11184 5.20451 4.95451C5.36184 4.79717 5.5623 4.69002 5.78052 4.64662C5.99875 4.60321 6.22495 4.62549 6.43052 4.71064C6.63609 4.79578 6.81179 4.93998 6.9354 5.12498C7.05902 5.30999 7.125 5.5275 7.125 5.75C7.125 6.04837 7.00647 6.33452 6.7955 6.5455C6.58452 6.75647 6.29837 6.875 6 6.875Z" fill="#A4A4A4"/>
</svg>
