<svg width="18" height="18" viewBox="0 0 18 18" fill="none" xmlns="http://www.w3.org/2000/svg">
<path d="M8.25 3.045V0.75C8.25 0.551088 8.32902 0.360322 8.46967 0.21967C8.61032 0.0790176 8.80109 0 9 0C9.19891 0 9.38968 0.0790176 9.53033 0.21967C9.67098 0.360322 9.75 0.551088 9.75 0.75V3.045C11.072 3.21201 12.3009 3.81414 13.243 4.75651C14.1851 5.69889 14.7869 6.92793 14.9535 8.25H17.25C17.4489 8.25 17.6397 8.32902 17.7803 8.46967C17.921 8.61032 18 8.80109 18 9C18 9.19891 17.921 9.38968 17.7803 9.53033C17.6397 9.67098 17.4489 9.75 17.25 9.75H14.9535C14.7868 11.0723 14.1848 12.3015 13.2424 13.2439C12.3 14.1863 11.0708 14.7883 9.7485 14.955L9.75 15V17.25C9.75 17.4489 9.67098 17.6397 9.53033 17.7803C9.38968 17.921 9.19891 18 9 18C8.80109 18 8.61032 17.921 8.46967 17.7803C8.32902 17.6397 8.25 17.4489 8.25 17.25V15V14.955C6.92771 14.7883 5.69849 14.1863 4.75609 13.2439C3.81369 12.3015 3.2117 11.0723 3.045 9.75C3.03 9.75045 3.015 9.75045 3 9.75H0.75C0.551088 9.75 0.360322 9.67098 0.21967 9.53033C0.0790176 9.38968 0 9.19891 0 9C0 8.80109 0.0790176 8.61032 0.21967 8.46967C0.360322 8.32902 0.551088 8.25 0.75 8.25H3C3.015 8.24955 3.03 8.24955 3.045 8.25C3.21232 6.92825 3.81459 5.69972 4.75693 4.75792C5.69928 3.81612 6.92816 3.21456 8.25 3.048V3.045ZM4.5 9C4.5 10.1935 4.97411 11.3381 5.81802 12.182C6.66193 13.0259 7.80653 13.5 9 13.5C10.1935 13.5 11.3381 13.0259 12.182 12.182C13.0259 11.3381 13.5 10.1935 13.5 9C13.5 7.80653 13.0259 6.66193 12.182 5.81802C11.3381 4.97411 10.1935 4.5 9 4.5C7.80653 4.5 6.66193 4.97411 5.81802 5.81802C4.97411 6.66193 4.5 7.80653 4.5 9Z" fill="#A4A4A4"/>
<circle cx="9.00078" cy="8.9998" r="2.7" fill="#A4A4A4"/>
</svg>
