<svg width="24" height="24" viewBox="0 0 24 24" fill="none" xmlns="http://www.w3.org/2000/svg">
<path fill-rule="evenodd" clip-rule="evenodd" d="M5.17574 5.17574C5.41005 4.94142 5.78995 4.94142 6.02426 5.17574L12 11.1515L17.9757 5.17574C18.21 4.94142 18.5899 4.94142 18.8243 5.17574C19.0586 5.41005 19.0586 5.78995 18.8243 6.02426L12.8485 12L18.8243 17.9757C19.0586 18.21 19.0586 18.5899 18.8243 18.8243C18.5899 19.0586 18.21 19.0586 17.9757 18.8243L12 12.8485L6.02426 18.8243C5.78995 19.0586 5.41005 19.0586 5.17574 18.8243C4.94142 18.5899 4.94142 18.21 5.17574 17.9757L11.1515 12L5.17574 6.02426C4.94142 5.78995 4.94142 5.41005 5.17574 5.17574Z" fill="#333333"/>
</svg>
