<svg width="18" height="18" viewBox="0 0 18 18" fill="none" xmlns="http://www.w3.org/2000/svg">
<path fill-rule="evenodd" clip-rule="evenodd" d="M3.25753 3.0556C3.85509 2.97525 4.58683 2.96138 5.46684 2.95899C5.57299 1.56033 6.74148 0.458496 8.16732 0.458496H9.83399C11.2598 0.458496 12.4283 1.56033 12.5345 2.95899C13.4145 2.96138 14.1462 2.97525 14.7438 3.0556C15.4939 3.15645 16.1254 3.37219 16.6271 3.87379C17.1287 4.37539 17.3444 5.00695 17.4452 5.75704C17.5423 6.47951 17.5423 7.39808 17.5423 8.53775V11.9626C17.5423 13.1022 17.5423 14.0208 17.4452 14.7433C17.3444 15.4934 17.1287 16.1249 16.6271 16.6265C16.1254 17.1282 15.4939 17.3439 14.7438 17.4447C14.0213 17.5418 13.1027 17.5418 11.9631 17.5418H6.03826C4.8986 17.5418 3.98 17.5418 3.25753 17.4447C2.50744 17.3439 1.87588 17.1282 1.37428 16.6265C0.872676 16.1249 0.656935 15.4934 0.556085 14.7433C0.458952 14.0208 0.458968 13.1022 0.458985 11.9626V8.53775C0.458968 7.39808 0.458952 6.4795 0.556085 5.75704C0.656935 5.00695 0.872676 4.37539 1.37428 3.87379C1.87588 3.37219 2.50744 3.15645 3.25753 3.0556ZM11.2776 2.9585H6.72375C6.82484 2.25177 7.43265 1.7085 8.16732 1.7085H9.83399C10.5687 1.7085 11.1765 2.25177 11.2776 2.9585ZM3.42408 16.2059C2.81261 16.1237 2.48879 15.9733 2.25816 15.7427C2.02753 15.512 1.87715 15.1882 1.79494 14.5767C1.71031 13.9472 1.70898 13.113 1.70898 11.9168V9.10791C4.78262 10.3985 6.5773 11.1035 8.46724 11.1916C8.82265 11.2082 9.17865 11.2082 9.53407 11.1916C11.424 11.1035 13.2187 10.3985 16.2923 9.10791V11.9168C16.2923 13.113 16.291 13.9472 16.2064 14.5767C16.1242 15.1882 15.9738 15.512 15.7432 15.7427C15.5125 15.9733 15.1887 16.1237 14.5772 16.2059C13.9477 16.2905 13.1135 16.2918 11.9173 16.2918H6.08398C4.88781 16.2918 4.05354 16.2905 3.42408 16.2059ZM16.2908 7.75241C12.8535 9.19825 11.2002 9.86258 9.47582 9.943C9.15924 9.95775 8.84207 9.95775 8.52549 9.943C6.80104 9.86258 5.14781 9.19825 1.71051 7.75241C1.71484 6.98332 1.73145 6.39582 1.79494 5.9236C1.87715 5.31211 2.02753 4.9883 2.25816 4.75767C2.48879 4.52704 2.81261 4.37666 3.42408 4.29445C4.05354 4.20982 4.88781 4.2085 6.08398 4.2085H11.9173C13.1135 4.2085 13.9477 4.20982 14.5772 4.29445C15.1887 4.37666 15.5125 4.52704 15.7432 4.75767C15.9738 4.9883 16.1242 5.31211 16.2064 5.9236C16.2698 6.39582 16.2865 6.98332 16.2908 7.75241Z" fill="#DF1B3F"/>
</svg>
