<svg width="37" height="36" viewBox="0 0 37 36" fill="none" xmlns="http://www.w3.org/2000/svg">
<path d="M10.7003 4.5C10.8503 4.5 11.0003 4.5 11.0003 4.5H20.0003V10.05C20.0003 12 21.5003 13.5 23.4503 13.5H29.0003V22.95C29.0003 23.4 29.3003 23.7 29.7503 23.7C30.2003 23.7 30.5003 23.4 30.5003 22.95V12.75C30.5003 12.6 30.5003 12.6 30.5003 12.45C30.5003 12.3 30.3503 12.3 30.3503 12.15L21.3503 3.15C21.3503 3.15 21.2003 3 21.0503 3C20.9003 3 20.9003 3 20.7503 3H11.0003C10.8503 3 10.7003 3 10.5503 3C10.1003 3 9.80029 3.45 9.95029 3.9C9.95029 4.2 10.4003 4.5 10.7003 4.5ZM21.5003 5.55L27.9503 12H23.4503C22.4003 12 21.5003 11.1 21.5003 10.05V5.55ZM33.3503 31.65L4.85029 3.15C4.55029 3 4.10029 3 3.80029 3.15C3.50029 3.45 3.50029 4.05 3.65029 4.35L6.50029 7.05C6.50029 7.2 6.50029 7.35 6.50029 7.5V28.5C6.50029 31.05 8.45029 33 11.0003 33H26.0003C27.6503 33 29.3003 31.95 30.0503 30.6L32.3003 32.85C32.4503 33 32.6003 33 32.9003 33C33.0503 33 33.3503 32.85 33.5003 32.85C33.5003 32.55 33.5003 31.95 33.3503 31.65ZM26.0003 31.5H11.0003C9.35029 31.5 8.00029 30.15 8.00029 28.5V8.55L28.8503 29.4C28.4003 30.6 27.3503 31.5 26.0003 31.5Z" fill="#A4A4A4"/>
</svg>
