<svg width="11" height="10" viewBox="0 0 11 10" fill="none" xmlns="http://www.w3.org/2000/svg">
<g clip-path="url(#clip0_4013_18517)">
<path d="M1.2433 9.88965C1.06915 10.0406 0.797765 10.0361 0.629455 9.87958C0.461135 9.72302 0.456355 9.47058 0.618625 9.3086L5.33316 4.92326L0.618625 0.691396C0.456355 0.529406 0.461135 0.276976 0.629455 0.120416C0.797775 -0.0361444 1.06916 -0.0406044 1.2433 0.110346L6.5 4.92326L1.2433 9.88965Z" fill="#333333"/>
</g>
<g clip-path="url(#clip1_4013_18517)">
<path d="M5.2433 9.88965C5.06915 10.0406 4.79777 10.0361 4.62946 9.87958C4.46114 9.72302 4.45636 9.47058 4.61863 9.3086L9.33316 4.92326L4.61863 0.691396C4.45636 0.529406 4.46114 0.276976 4.62946 0.120416C4.79778 -0.0361444 5.06916 -0.0406044 5.2433 0.110346L10.5 4.92326L5.2433 9.88965Z" fill="#333333"/>
</g>
<defs>
<clipPath id="clip0_4013_18517">
<rect width="6" height="9.99999" fill="white" transform="translate(0.5)"/>
</clipPath>
<clipPath id="clip1_4013_18517">
<rect width="6" height="9.99999" fill="white" transform="translate(4.5)"/>
</clipPath>
</defs>
</svg>
