<svg width="35" height="34" viewBox="0 0 35 34" fill="none" xmlns="http://www.w3.org/2000/svg">
<path d="M17.0805 10.647L15.3873 8.9538C14.1798 7.74628 12.7077 6.83648 11.0876 6.29646L9.8307 5.87749C8.53564 5.4458 7.19824 6.40974 7.19824 7.77485V9.20548C7.19824 10.0663 7.7491 10.8306 8.56579 11.1028L11.4335 12.0587" stroke="#DF1B3F" stroke-width="1.5" stroke-linecap="round"/>
<path d="M17.0806 10.647L18.7738 8.9538C19.9814 7.74628 21.4534 6.83648 23.0735 6.29646L24.3304 5.87749C25.6255 5.4458 26.9629 6.40974 26.9629 7.77485V9.20548C26.9629 10.0663 26.412 10.8306 25.5953 11.1028L22.7276 12.0587" stroke="#DF1B3F" stroke-width="1.5" stroke-linecap="round"/>
<path d="M4.375 14.0591C4.375 13.1163 4.375 12.6449 4.66789 12.352C4.96079 12.0591 5.43219 12.0591 6.375 12.0591H27.7865C28.7293 12.0591 29.2007 12.0591 29.4936 12.352C29.7865 12.6449 29.7865 13.1163 29.7865 14.0591V17.1178C29.7865 18.0606 29.7865 18.532 29.4936 18.8249C29.2007 19.1178 28.7293 19.1178 27.7865 19.1178H27.5513C26.6084 19.1178 26.137 19.1178 25.8441 19.4107C25.5513 19.7036 25.5513 20.175 25.5513 21.1178V27.0001C25.5513 27.9429 25.5513 28.4143 25.2584 28.7072C24.9655 29.0001 24.4941 29.0001 23.5513 29.0001H10.6103C9.66744 29.0001 9.19604 29.0001 8.90314 28.7072C8.61025 28.4143 8.61025 27.9429 8.61025 27.0001V21.1178C8.61025 20.175 8.61025 19.7036 8.31736 19.4107C8.02446 19.1178 7.55306 19.1178 6.61025 19.1178H6.375C5.43219 19.1178 4.96079 19.1178 4.66789 18.8249C4.375 18.532 4.375 18.0606 4.375 17.1178V14.0591Z" stroke="#4C4C4C" stroke-width="1.5"/>
<path d="M7.19824 19.1172H26.9627" stroke="#4C4C4C" stroke-width="1.5" stroke-linecap="round"/>
<path d="M17.0806 10.6465L17.0806 28.9992" stroke="#DF1B3F" stroke-width="1.5" stroke-linecap="round"/>
</svg>
