<svg width="50" height="50" viewBox="0 0 50 50" fill="none" xmlns="http://www.w3.org/2000/svg">
<g clip-path="url(#clip0_6198_7446)">
<path d="M48.3613 17.7148L46.4072 15.7598C45.9473 15.2617 45.1426 15.2617 44.6445 15.7598L28.166 32.2852L31.8066 35.9277L46.0244 21.7402L43.457 19.21C42.8818 18.5967 43.8018 17.7148 44.377 18.29L46.9062 20.8203L48.3623 19.4014C48.8213 18.9414 48.8213 18.1748 48.3613 17.7148ZM37.8232 45.9736C37.8232 48.1973 35.9834 50 33.7998 50H4.02344C1.83984 50 0 48.1982 0 45.9736V11.541C0 11.3496 0.115234 11.1963 0.268555 11.043L11.1133 0.191406C11.2285 0.0761719 11.3818 0 11.5732 0H33.7998C35.9844 0 37.8232 1.80176 37.8232 4.02637V10.8135C37.8232 11.6953 36.5205 11.6953 36.5205 10.8135V4.02637C36.5205 2.53125 35.2939 1.30371 33.7998 1.30371H12.1865V8.12891C12.1865 10.3525 10.3857 12.1553 8.20117 12.1553H1.30273V45.9746C1.30273 47.4697 2.5293 48.6973 4.02344 48.6973H33.7988C35.293 48.6973 36.5195 47.4707 36.5195 45.9746V33.0908L32.2656 37.3086C32.1895 37.4238 32.0742 37.4619 31.959 37.5L25.1377 39.7627C24.6396 39.9541 24.1416 39.4561 24.333 38.957L26.5557 32.2471C26.5938 32.0938 26.6709 31.9023 26.7852 31.7871L43.7236 14.8389C44.7197 13.8799 46.3291 13.8418 47.3262 14.8389L49.2803 16.7939C50.2383 17.7529 50.2383 19.3633 49.2803 20.3213C49.2422 20.3594 50.9277 22.2383 49.2422 23.9258L43.0342 30.1377C42.4209 30.751 41.501 29.8311 42.1143 29.2559L48.3223 23.0059C48.8203 22.5078 48.7822 21.7793 48.3223 21.2803L37.8232 31.7871V45.9736ZM10.9219 2.22363L2.26074 10.8506H8.2002C9.69434 10.8506 10.9209 9.62402 10.9209 8.12793V2.22363H10.9219ZM25.9434 38.1514L30.6182 36.5791L27.5137 33.4736L25.9434 38.1514ZM18.5479 18.5195C17.666 18.5195 17.666 17.2158 18.5479 17.2158H28.2051C29.0869 17.2158 29.0869 18.5195 28.2051 18.5195H18.5479ZM9.23535 25.6514C8.39258 25.6514 8.39258 24.3477 9.23535 24.3477H27.8213C28.7031 24.3477 28.7031 25.6514 27.8213 25.6514H9.23535Z" fill="#333333"/>
<path d="M8.58391 40.0304C7.85539 39.6466 8.43059 38.4962 9.19719 38.88C10.3466 39.4933 11.6884 35.3136 11.995 34.547C15.8271 24.5011 15.3671 31.7863 15.5585 36.3488C15.6738 38.3429 15.788 38.5343 16.6698 37.422C17.4745 36.463 18.663 34.2775 19.5058 36.7706C19.7353 37.4991 20.1572 38.6876 21.9198 38.4581C22.7626 38.381 22.9159 39.6466 22.0732 39.7618C18.2792 40.2218 18.7392 36.6945 18.1259 37.6525C16.8613 39.6847 15.9413 40.1447 15.2138 39.7228C14.2177 39.0714 14.2939 36.2716 14.371 33.8566C14.4472 31.3263 13.413 34.4698 13.1835 35.007C12.4931 36.8097 11.1513 41.3732 8.58391 40.0304Z" fill="#DF1B3F"/>
</g>
<defs>
<clipPath id="clip0_6198_7446">
<rect width="50" height="50" fill="white"/>
</clipPath>
</defs>
</svg>
