<svg width="50" height="50" viewBox="0 0 50 50" fill="none" xmlns="http://www.w3.org/2000/svg">
<g clip-path="url(#clip0_6176_42232)">
<path d="M46.1484 36.0811C49.5596 32.6689 49.5596 27.0703 46.1484 23.6582C42.7754 20.2842 37.1797 20.2842 33.7686 23.6582C30.3574 27.0703 30.3574 32.6689 33.7686 36.0811C37.1787 39.4551 42.7754 39.4551 46.1484 36.0811ZM46.9912 20.9355C46.3779 20.3223 47.2979 19.4014 47.9111 20.0156L49.1377 21.2041C49.7129 21.8174 48.793 22.7383 48.2178 22.124L46.9912 20.9355ZM38.9805 27.9141C40.3984 27.1475 42.1621 28.2588 42.1621 29.8311C42.1621 31.0576 41.2041 32.0166 39.9775 32.0166C38.3291 32.0166 37.2949 30.2529 38.0615 28.834L35.9531 26.7246C35.3398 26.1113 36.2598 25.1904 36.873 25.8047L38.9805 27.9141ZM39.0957 29.8311C39.0957 30.3291 39.5176 30.751 39.9775 30.751C40.4756 30.751 40.8975 30.3291 40.8975 29.8311C40.8975 29.3711 40.4756 28.9492 39.9775 28.9492C39.5166 28.9492 39.0957 29.3711 39.0957 29.8311ZM37.792 39.6855V45.9736C37.792 48.1973 35.9902 50 33.7676 50H4.02441C1.80176 50 0 48.1982 0 45.9736V11.541C0 11.3496 0.0761719 11.1963 0.229492 11.0811L11.0771 0.191406C11.1924 0.0761719 11.3838 0 11.5371 0H33.7676C35.9902 0 37.792 1.80176 37.792 4.02637V10.8135C37.792 11.6572 36.4893 11.6572 36.4893 10.8135V4.02637C36.4893 2.53125 35.2627 1.30371 33.7676 1.30371H12.1885V8.12891C12.1885 10.3525 10.3867 12.1553 8.16406 12.1553H1.30273V45.9746C1.30273 47.4697 2.5293 48.6973 4.02441 48.6973H33.7676C35.2627 48.6973 36.4893 47.4707 36.4893 45.9746V39.3027C35.1475 38.8428 33.9209 38.0371 32.8477 37.002C28.9385 33.0908 28.9385 26.6494 32.8477 22.7383C36.7568 18.8652 43.1582 18.8652 47.0674 22.7383C50.9766 26.6494 50.9766 33.0908 47.0674 37.002C44.6533 39.417 41.127 40.4521 37.792 39.6855ZM37.8691 18.29C37.8691 19.1338 36.5664 19.1338 36.5664 18.29V16.2578C36.5664 15.1846 37.4863 14.2637 38.5977 14.2637H41.3955C42.5068 14.2637 43.4268 15.1455 43.4268 16.2578V18.29C43.4268 19.1338 42.124 19.1338 42.124 18.29V16.2578C42.124 15.874 41.7793 15.5674 41.3955 15.5674H38.5977C38.1758 15.5674 37.8691 15.874 37.8691 16.2578V18.29ZM9.19922 32.7842C8.35645 32.7842 8.35645 31.4805 9.19922 31.4805H25.2969C26.1787 31.4805 26.1787 32.7842 25.2969 32.7842H9.19922ZM9.19922 39.916C8.35645 39.916 8.35645 38.6504 9.19922 38.6504H25.2969C26.1787 38.6504 26.1787 39.916 25.2969 39.916H9.19922ZM9.19922 25.6514C8.35645 25.6514 8.35645 24.3477 9.19922 24.3477H25.2969C26.1787 24.3477 26.1787 25.6514 25.2969 25.6514H9.19922ZM10.8857 2.22363L2.26172 10.8506H8.16406C9.65918 10.8506 10.8857 9.62402 10.8857 8.12793V2.22363Z" fill="#333333"/>
<path d="M38.9806 27.9141C40.3985 27.1475 42.1622 28.2588 42.1622 29.8311C42.1622 31.0576 41.2042 32.0166 39.9776 32.0166C38.3292 32.0166 37.295 30.2529 38.0616 28.834L35.9532 26.7246C35.3399 26.1113 36.2599 25.1904 36.8731 25.8047L38.9806 27.9141ZM39.0958 29.8311C39.0958 30.3291 39.5177 30.751 39.9776 30.751C40.4757 30.751 40.8976 30.3291 40.8976 29.8311C40.8976 29.3711 40.4757 28.9492 39.9776 28.9492C39.5167 28.9492 39.0958 29.3711 39.0958 29.8311Z" fill="#DF1B3F"/>
</g>
<defs>
<clipPath id="clip0_6176_42232">
<rect width="50" height="50" fill="white"/>
</clipPath>
</defs>
</svg>
