<svg width="20" height="20" viewBox="0 0 20 20" fill="none" xmlns="http://www.w3.org/2000/svg">
<path d="M10 1.25C8.3424 1.25 6.75269 1.90848 5.58058 3.08058C4.40848 4.25269 3.75 5.8424 3.75 7.5C3.75 13.3375 9.375 18.3812 9.5875 18.5938C9.70156 18.6939 9.84818 18.7492 10 18.7492C10.1518 18.7492 10.2984 18.6939 10.4125 18.5938C10.6562 18.3812 16.25 13.3375 16.25 7.5C16.25 6.67924 16.0883 5.86651 15.7742 5.10823C15.4602 4.34994 14.9998 3.66095 14.4194 3.08058C13.8391 2.50022 13.1501 2.03984 12.3918 1.72575C11.6335 1.41166 10.8208 1.25 10 1.25V1.25ZM10 17.2625C8.75 16.0125 5 11.9063 5 7.5C5 6.17392 5.52678 4.90215 6.46447 3.96447C7.40215 3.02678 8.67392 2.5 10 2.5C11.3261 2.5 12.5979 3.02678 13.5355 3.96447C14.4732 4.90215 15 6.17392 15 7.5C15 11.875 11.25 15.9938 10 17.2625Z" fill="#DF1B3F"/>
<path d="M10 5C9.50555 5 9.0222 5.14662 8.61108 5.42133C8.19995 5.69603 7.87952 6.08648 7.6903 6.54329C7.50108 7.00011 7.45157 7.50277 7.54804 7.98773C7.6445 8.47268 7.8826 8.91814 8.23223 9.26777C8.58187 9.6174 9.02732 9.8555 9.51228 9.95196C9.99723 10.0484 10.4999 9.99892 10.9567 9.8097C11.4135 9.62048 11.804 9.30005 12.0787 8.88893C12.3534 8.4778 12.5 7.99445 12.5 7.5C12.5 6.83696 12.2366 6.20107 11.7678 5.73223C11.2989 5.26339 10.663 5 10 5V5ZM10 8.75C9.75277 8.75 9.5111 8.67669 9.30554 8.53934C9.09998 8.40199 8.93976 8.20676 8.84515 7.97835C8.75054 7.74995 8.72579 7.49861 8.77402 7.25614C8.82225 7.01366 8.9413 6.79093 9.11612 6.61612C9.29093 6.4413 9.51366 6.32225 9.75614 6.27402C9.99861 6.22579 10.2499 6.25054 10.4784 6.34515C10.7068 6.43976 10.902 6.59998 11.0393 6.80554C11.1767 7.0111 11.25 7.25277 11.25 7.5C11.25 7.83152 11.1183 8.14946 10.8839 8.38388C10.6495 8.6183 10.3315 8.75 10 8.75V8.75Z" fill="#DF1B3F"/>
</svg>
