<svg width="16" height="16" viewBox="0 0 16 16" fill="none" xmlns="http://www.w3.org/2000/svg">
<path fill-rule="evenodd" clip-rule="evenodd" d="M7.99935 2.66699C8.25182 2.66699 8.45649 2.87166 8.45649 3.12414L8.45649 7.54318H12.8755C13.128 7.54318 13.3327 7.74785 13.3327 8.00032C13.3327 8.25279 13.128 8.45746 12.8755 8.45746H8.45649L8.45649 12.8765C8.45649 13.129 8.25182 13.3337 7.99935 13.3337C7.74688 13.3337 7.54221 13.129 7.54221 12.8765L7.54221 8.45746H3.12316C2.87069 8.45746 2.66602 8.25279 2.66602 8.00032C2.66602 7.74785 2.87069 7.54318 3.12316 7.54318L7.54221 7.54318L7.54221 3.12414C7.54221 2.87166 7.74688 2.66699 7.99935 2.66699Z" fill="#333333"/>
</svg>
