<svg width="35" height="34" viewBox="0 0 35 34" fill="none" xmlns="http://www.w3.org/2000/svg">
<path d="M27.5701 6.03479L6.98844 12.7601C6.85847 12.8028 6.74362 12.8822 6.65767 12.9886C6.57172 13.095 6.51834 13.224 6.50394 13.3601C6.48955 13.4961 6.51475 13.6334 6.57651 13.7555C6.63828 13.8776 6.73399 13.9792 6.85213 14.0482L14.6301 18.571C14.7502 18.6408 14.888 18.6738 15.0266 18.6661C15.1653 18.6583 15.2986 18.61 15.41 18.5273L17.5965 16.9035L15.9727 19.0899C15.8899 19.2014 15.8417 19.3347 15.8339 19.4733C15.8261 19.6119 15.8592 19.7498 15.929 19.8698L20.4518 27.6478C20.5207 27.766 20.6224 27.8617 20.7444 27.9235C20.8665 27.9853 21.0038 28.0105 21.1399 27.9961C21.276 27.9817 21.405 27.9283 21.5114 27.8423C21.6178 27.7564 21.6972 27.6415 21.7399 27.5115L28.4652 6.92983C28.5057 6.80524 28.511 6.67188 28.4804 6.54449C28.4498 6.41711 28.3846 6.30066 28.2919 6.20803C28.1993 6.11539 28.0829 6.05019 27.9555 6.01961C27.8281 5.98904 27.6947 5.99429 27.5701 6.03479ZM20.8826 25.5652L17.3912 19.5607L21.6013 13.8918C21.7028 13.7552 21.7518 13.5865 21.7393 13.4167C21.7269 13.2469 21.6538 13.0872 21.5334 12.9668C21.413 12.8464 21.2533 12.7733 21.0835 12.7608C20.9137 12.7484 20.745 12.7974 20.6083 12.8989L14.9395 17.109L8.93487 13.6173L26.6817 7.8183L20.8826 25.5652Z" fill="#4C4C4C"/>
<path d="M13.6842 21.7852L9.15432 26.3109C9.02638 26.4387 8.85285 26.5105 8.67191 26.5105C8.49098 26.5105 8.31745 26.4387 8.18951 26.3108C8.06157 26.183 7.9897 26.0096 7.98971 25.8289C7.98971 25.6481 8.06159 25.4747 8.18953 25.3469L12.7194 20.8213C12.8473 20.6934 13.0209 20.6216 13.2018 20.6216C13.3827 20.6216 13.5562 20.6935 13.6842 20.8213C13.8121 20.9491 13.884 21.1225 13.884 21.3032C13.884 21.484 13.8121 21.6574 13.6842 21.7852ZM7.69983 21.9565C7.63648 21.8932 7.58622 21.818 7.55193 21.7353C7.51765 21.6526 7.5 21.564 7.5 21.4745C7.5 21.385 7.51765 21.2963 7.55193 21.2136C7.58622 21.1309 7.63648 21.0558 7.69983 20.9925L9.48724 19.2067C9.55025 19.1419 9.62552 19.0902 9.70869 19.0548C9.79185 19.0193 9.88125 19.0007 9.97167 19C10.0621 18.9994 10.1518 19.0167 10.2354 19.051C10.3191 19.0852 10.3951 19.1358 10.459 19.1997C10.523 19.2636 10.5736 19.3395 10.6079 19.4231C10.6422 19.5067 10.6595 19.5963 10.6588 19.6866C10.6581 19.777 10.6395 19.8663 10.604 19.9494C10.5684 20.0325 10.5167 20.1077 10.4519 20.1706L8.66461 21.9564C8.53668 22.0842 8.36316 22.1561 8.18223 22.1561C8.0013 22.1561 7.82778 22.0843 7.69983 21.9565ZM15.3002 24.0506C15.3635 24.1139 15.4138 24.189 15.4481 24.2717C15.4824 24.3544 15.5 24.4431 15.5 24.5326C15.5 24.6221 15.4824 24.7107 15.4481 24.7934C15.4138 24.8761 15.3635 24.9513 15.3002 25.0146L13.5127 26.8003C13.4494 26.8637 13.3743 26.914 13.2915 26.9483C13.2087 26.9825 13.12 27.0001 13.0303 27C12.428 27 12.1169 26.267 12.5479 25.8364L14.3354 24.0506C14.4633 23.9228 14.6368 23.851 14.8178 23.851C14.9987 23.851 15.1722 23.9228 15.3002 24.0506Z" fill="#DF1B3F"/>
</svg>
