<svg width="16" height="16" viewBox="0 0 16 16" fill="none" xmlns="http://www.w3.org/2000/svg">
<path d="M8 16C3.588 16 0 12.412 0 8C0 7.632 0.298667 7.33333 0.666667 7.33333C1.03467 7.33333 1.33333 7.632 1.33333 8C1.33333 11.676 4.324 14.6667 8 14.6667C11.676 14.6667 14.6667 11.676 14.6667 8C14.6667 4.324 11.676 1.33333 8 1.33333C5.91733 1.33333 3.996 2.27867 2.72933 3.92533C2.504 4.21867 2.08533 4.27067 1.79467 4.048C1.50267 3.82267 1.448 3.40533 1.672 3.11333C3.19467 1.13467 5.5 0 8 0C12.412 0 16 3.588 16 8C16 12.412 12.412 16 8 16Z" fill="#333333"/>
<path d="M5.13139 4.52267H1.94206C1.57406 4.52267 1.27539 4.224 1.27539 3.856V0.666667C1.27539 0.298667 1.57406 0 1.94206 0C2.31006 0 2.60872 0.298667 2.60872 0.666667V3.18933H5.13139C5.49939 3.18933 5.79806 3.488 5.79806 3.856C5.79806 4.224 5.49939 4.52267 5.13139 4.52267Z" fill="#333333"/>
</svg>
