<svg width="35" height="34" viewBox="0 0 35 34" fill="none" xmlns="http://www.w3.org/2000/svg">
<path d="M28.9322 10.2356L22.3163 3.471C22.1187 3.26936 21.8829 3.10913 21.6226 2.99968C21.3623 2.89022 21.0829 2.83372 20.8005 2.8335H10.4163C9.85276 2.8335 9.31225 3.05738 8.91374 3.45589C8.51522 3.85441 8.29134 4.39491 8.29134 4.9585V5.66683H7.58301C7.01942 5.66683 6.47892 5.89071 6.08041 6.28923C5.68189 6.68774 5.45801 7.22824 5.45801 7.79183V11.3335C5.45801 11.5214 5.53264 11.7015 5.66547 11.8344C5.79831 11.9672 5.97848 12.0418 6.16634 12.0418C6.3542 12.0418 6.53437 11.9672 6.66721 11.8344C6.80005 11.7015 6.87467 11.5214 6.87467 11.3335V7.79183C6.87467 7.60397 6.9493 7.4238 7.08214 7.29096C7.21498 7.15812 7.39515 7.0835 7.58301 7.0835H8.29134V26.2085C8.29134 26.7721 8.51522 27.3126 8.91374 27.7111C9.31225 28.1096 9.85276 28.3335 10.4163 28.3335H25.2913V29.0418C25.2913 29.2297 25.2167 29.4099 25.0839 29.5427C24.951 29.6755 24.7709 29.7502 24.583 29.7502H7.58301C7.39515 29.7502 7.21498 29.6755 7.08214 29.5427C6.9493 29.4099 6.87467 29.2297 6.87467 29.0418V14.1668C6.87467 13.979 6.80005 13.7988 6.66721 13.666C6.53437 13.5331 6.3542 13.4585 6.16634 13.4585C5.97848 13.4585 5.79831 13.5331 5.66547 13.666C5.53264 13.7988 5.45801 13.979 5.45801 14.1668V29.0418C5.45801 29.6054 5.68189 30.1459 6.08041 30.5444C6.47892 30.9429 7.01942 31.1668 7.58301 31.1668H24.583C25.1466 31.1668 25.6871 30.9429 26.0856 30.5444C26.4841 30.1459 26.708 29.6054 26.708 29.0418V28.3335H27.4163C27.9799 28.3335 28.5204 28.1096 28.9189 27.7111C29.3175 27.3126 29.5413 26.7721 29.5413 26.2085V11.7231C29.5409 11.1666 29.3222 10.6325 28.9322 10.2356ZM22.458 5.66683L27.3313 10.6252H23.1663C22.9785 10.6252 22.7983 10.5505 22.6655 10.4177C22.5326 10.2849 22.458 10.1047 22.458 9.91683V5.66683ZM28.1247 26.2085C28.1247 26.3964 28.05 26.5765 27.9172 26.7094C27.7844 26.8422 27.6042 26.9168 27.4163 26.9168H10.4163C10.2285 26.9168 10.0483 26.8422 9.91547 26.7094C9.78264 26.5765 9.70801 26.3964 9.70801 26.2085V4.9585C9.70801 4.77063 9.78264 4.59047 9.91547 4.45763C10.0483 4.32479 10.2285 4.25016 10.4163 4.25016H20.8005C20.8831 4.25252 20.9646 4.2693 21.0413 4.29975V9.91683C21.0413 10.4804 21.2652 11.0209 21.6637 11.4194C22.0623 11.8179 22.6028 12.0418 23.1663 12.0418H28.1247V26.2085Z" fill="#4C4C4C"/>
<path d="M18.9163 13.4585C17.9357 13.4585 16.977 13.7493 16.1616 14.2941C15.3462 14.839 14.7107 15.6133 14.3354 16.5194C13.9602 17.4254 13.862 18.4223 14.0533 19.3842C14.2446 20.346 14.7168 21.2295 15.4103 21.9229C16.1037 22.6163 16.9872 23.0886 17.949 23.2799C18.9108 23.4712 19.9078 23.373 20.8138 22.9977C21.7198 22.6224 22.4942 21.9869 23.039 21.1715C23.5839 20.3561 23.8747 19.3975 23.8747 18.4168C23.8747 17.7657 23.7464 17.1209 23.4972 16.5194C23.2481 15.9178 22.8828 15.3712 22.4224 14.9108C21.962 14.4503 21.4154 14.0851 20.8138 13.8359C20.2122 13.5867 19.5675 13.4585 18.9163 13.4585ZM15.3747 18.4168C15.3759 17.724 15.5803 17.0467 15.9626 16.4689L20.8643 21.3706C20.3306 21.722 19.7118 21.9225 19.0734 21.9509C18.4351 21.9792 17.8009 21.8343 17.2382 21.5316C16.6755 21.2288 16.2052 20.7794 15.8771 20.2311C15.549 19.6827 15.3754 19.0558 15.3747 18.4168ZM21.8701 20.3647L16.9684 15.4631C17.6491 15.0188 18.4619 14.8221 19.2704 14.9061C20.0789 14.9901 20.8339 15.3497 21.4087 15.9245C21.9835 16.4993 22.3431 17.2543 22.4271 18.0628C22.5111 18.8713 22.3144 19.6841 21.8701 20.3647Z" fill="#DF1B3F"/>
</svg>
