<svg width="35" height="34" viewBox="0 0 35 34" fill="none" xmlns="http://www.w3.org/2000/svg">
<path d="M28.9322 10.2356L22.3163 3.471C22.1187 3.26936 21.8829 3.10913 21.6226 2.99968C21.3623 2.89022 21.0829 2.83372 20.8005 2.8335H10.4163C9.85276 2.8335 9.31225 3.05738 8.91374 3.45589C8.51522 3.85441 8.29134 4.39491 8.29134 4.9585V5.66683H7.58301C7.01942 5.66683 6.47892 5.89071 6.08041 6.28923C5.68189 6.68774 5.45801 7.22824 5.45801 7.79183V11.3335C5.45801 11.5214 5.53264 11.7015 5.66547 11.8344C5.79831 11.9672 5.97848 12.0418 6.16634 12.0418C6.3542 12.0418 6.53437 11.9672 6.66721 11.8344C6.80005 11.7015 6.87467 11.5214 6.87467 11.3335V7.79183C6.87467 7.60397 6.9493 7.4238 7.08214 7.29096C7.21498 7.15812 7.39515 7.0835 7.58301 7.0835H8.29134V26.2085C8.29134 26.7721 8.51522 27.3126 8.91374 27.7111C9.31225 28.1096 9.85276 28.3335 10.4163 28.3335H25.2913V29.0418C25.2913 29.2297 25.2167 29.4099 25.0839 29.5427C24.951 29.6755 24.7709 29.7502 24.583 29.7502H7.58301C7.39515 29.7502 7.21498 29.6755 7.08214 29.5427C6.9493 29.4099 6.87467 29.2297 6.87467 29.0418V14.1668C6.87467 13.979 6.80005 13.7988 6.66721 13.666C6.53437 13.5331 6.3542 13.4585 6.16634 13.4585C5.97848 13.4585 5.79831 13.5331 5.66547 13.666C5.53264 13.7988 5.45801 13.979 5.45801 14.1668V29.0418C5.45801 29.6054 5.68189 30.1459 6.08041 30.5444C6.47892 30.9429 7.01942 31.1668 7.58301 31.1668H24.583C25.1466 31.1668 25.6871 30.9429 26.0856 30.5444C26.4841 30.1459 26.708 29.6054 26.708 29.0418V28.3335H27.4163C27.9799 28.3335 28.5204 28.1096 28.9189 27.7111C29.3175 27.3126 29.5413 26.7721 29.5413 26.2085V11.7231C29.5409 11.1666 29.3222 10.6325 28.9322 10.2356ZM22.458 5.66683L27.3313 10.6252H23.1663C22.9785 10.6252 22.7983 10.5505 22.6655 10.4177C22.5326 10.2849 22.458 10.1047 22.458 9.91683V5.66683ZM28.1247 26.2085C28.1247 26.3964 28.05 26.5765 27.9172 26.7094C27.7844 26.8422 27.6042 26.9168 27.4163 26.9168H10.4163C10.2285 26.9168 10.0483 26.8422 9.91547 26.7094C9.78264 26.5765 9.70801 26.3964 9.70801 26.2085V4.9585C9.70801 4.77063 9.78264 4.59047 9.91547 4.45763C10.0483 4.32479 10.2285 4.25016 10.4163 4.25016H20.8005C20.8831 4.25252 20.9646 4.2693 21.0413 4.29975V9.91683C21.0413 10.4804 21.2652 11.0209 21.6637 11.4194C22.0623 11.8179 22.6028 12.0418 23.1663 12.0418H28.1247V26.2085Z" fill="#4C4C4C"/>
<path d="M18.9163 17.7082C19.4767 17.7082 20.0245 17.542 20.4905 17.2307C20.9564 16.9193 21.3196 16.4768 21.534 15.9591C21.7484 15.4414 21.8046 14.8717 21.6952 14.3221C21.5859 13.7725 21.3161 13.2676 20.9198 12.8714C20.5236 12.4751 20.0187 12.2053 19.4691 12.0959C18.9195 11.9866 18.3498 12.0427 17.8321 12.2572C17.3143 12.4716 16.8718 12.8348 16.5605 13.3007C16.2492 13.7667 16.083 14.3145 16.083 14.8748C16.083 15.6263 16.3815 16.347 16.9129 16.8783C17.4442 17.4097 18.1649 17.7082 18.9163 17.7082ZM18.9163 13.4582C19.1965 13.4582 19.4704 13.5413 19.7034 13.6969C19.9364 13.8526 20.1179 14.0738 20.2252 14.3327C20.3324 14.5916 20.3604 14.8764 20.3058 15.1512C20.2511 15.426 20.1162 15.6784 19.9181 15.8766C19.72 16.0747 19.4675 16.2096 19.1927 16.2643C18.9179 16.3189 18.6331 16.2909 18.3742 16.1837C18.1153 16.0764 17.8941 15.8949 17.7384 15.6619C17.5828 15.4289 17.4997 15.155 17.4997 14.8748C17.4997 14.4991 17.6489 14.1388 17.9146 13.8731C18.1803 13.6074 18.5406 13.4582 18.9163 13.4582ZM20.333 18.4165H17.4997C16.5604 18.4165 15.6595 18.7896 14.9953 19.4538C14.3311 20.118 13.958 21.0189 13.958 21.9582V22.6665C13.958 22.8544 14.0326 23.0345 14.1655 23.1674C14.2983 23.3002 14.4785 23.3748 14.6663 23.3748H23.1663C23.3542 23.3748 23.5344 23.3002 23.6672 23.1674C23.8 23.0345 23.8747 22.8544 23.8747 22.6665V21.9582C23.8747 21.0189 23.5015 20.118 22.8373 19.4538C22.1732 18.7896 21.2723 18.4165 20.333 18.4165ZM15.3747 21.9582C15.3747 21.3946 15.5986 20.8541 15.9971 20.4556C16.3956 20.0571 16.9361 19.8332 17.4997 19.8332H20.333C20.8966 19.8332 21.4371 20.0571 21.8356 20.4556C22.2341 20.8541 22.458 21.3946 22.458 21.9582H15.3747Z" fill="#DF1B3F"/>
</svg>
