<svg width="17" height="16" viewBox="0 0 17 16" fill="none" xmlns="http://www.w3.org/2000/svg">
<path d="M12.0173 2H5.48398C4.71048 2 4.08398 2.67125 4.08398 3.5V12.5C4.08398 13.3287 4.71048 14 5.48398 14H12.0173C12.7908 14 13.4173 13.3287 13.4173 12.5V3.5C13.4173 2.67125 12.7908 2 12.0173 2ZM12.484 12.5C12.484 12.7762 12.2752 13 12.0173 13H5.48398C5.22615 13 5.01732 12.7762 5.01732 12.5V3.5C5.01732 3.22375 5.22615 3 5.48398 3H12.0173C12.2752 3 12.484 3.22375 12.484 3.5V12.5ZM10.6173 10.5H6.88398C6.76022 10.5 6.64152 10.5527 6.554 10.6464C6.46648 10.7402 6.41732 10.8674 6.41732 11C6.41732 11.1326 6.46648 11.2598 6.554 11.3536C6.64152 11.4473 6.76022 11.5 6.88398 11.5H10.6173C10.7411 11.5 10.8598 11.4473 10.9473 11.3536C11.0348 11.2598 11.084 11.1326 11.084 11C11.084 10.8674 11.0348 10.7402 10.9473 10.6464C10.8598 10.5527 10.7411 10.5 10.6173 10.5ZM10.6173 8.5H6.88398C6.76022 8.5 6.64152 8.55268 6.554 8.64645C6.46648 8.74021 6.41732 8.86739 6.41732 9C6.41732 9.13261 6.46648 9.25979 6.554 9.35355C6.64152 9.44732 6.76022 9.5 6.88398 9.5H10.6173C10.7411 9.5 10.8598 9.44732 10.9473 9.35355C11.0348 9.25979 11.084 9.13261 11.084 9C11.084 8.86739 11.0348 8.74021 10.9473 8.64645C10.8598 8.55268 10.7411 8.5 10.6173 8.5ZM10.6173 6.5H6.88398C6.76022 6.5 6.64152 6.55268 6.554 6.64645C6.46648 6.74021 6.41732 6.86739 6.41732 7C6.41732 7.13261 6.46648 7.25979 6.554 7.35355C6.64152 7.44732 6.76022 7.5 6.88398 7.5H10.6173C10.7411 7.5 10.8598 7.44732 10.9473 7.35355C11.0348 7.25979 11.084 7.13261 11.084 7C11.084 6.86739 11.0348 6.74021 10.9473 6.64645C10.8598 6.55268 10.7411 6.5 10.6173 6.5ZM6.88398 5.5H8.75065C8.87442 5.5 8.99312 5.44732 9.08063 5.35355C9.16815 5.25979 9.21732 5.13261 9.21732 5C9.21732 4.86739 9.16815 4.74021 9.08063 4.64645C8.99312 4.55268 8.87442 4.5 8.75065 4.5H6.88398C6.76022 4.5 6.64152 4.55268 6.554 4.64645C6.46648 4.74021 6.41732 4.86739 6.41732 5C6.41732 5.13261 6.46648 5.25979 6.554 5.35355C6.64152 5.44732 6.76022 5.5 6.88398 5.5Z" fill="#666666"/>
</svg>
