<svg width="12" height="13" viewBox="0 0 12 13" fill="none" xmlns="http://www.w3.org/2000/svg">
<path fill-rule="evenodd" clip-rule="evenodd" d="M0.312951 0.813439C0.508213 0.618177 0.824795 0.618177 1.02006 0.813439L5.99984 5.79322L10.9796 0.813439C11.1749 0.618177 11.4915 0.618177 11.6867 0.813439C11.882 1.0087 11.882 1.32528 11.6867 1.52055L6.70694 6.50032L11.6867 11.4801C11.882 11.6754 11.882 11.9919 11.6867 12.1872C11.4915 12.3825 11.1749 12.3825 10.9796 12.1872L5.99984 7.20743L1.02006 12.1872C0.824795 12.3825 0.508213 12.3825 0.312951 12.1872C0.117688 11.9919 0.117688 11.6754 0.312951 11.4801L5.29273 6.50033L0.312951 1.52055C0.117688 1.32528 0.117688 1.0087 0.312951 0.813439Z" fill="#BDBDBD"/>
</svg>
