<svg width="24" height="24" viewBox="0 0 24 24" fill="none" xmlns="http://www.w3.org/2000/svg">
<path fill-rule="evenodd" clip-rule="evenodd" d="M11.6643 18.6314L5.73297 21.8808C5.2594 22.1269 4.67597 21.9527 4.41489 21.4872C4.33936 21.343 4.29861 21.1832 4.2959 21.0204V6.62223C4.2959 3.87623 6.17233 2.77783 8.87256 2.77783H15.2158C17.8337 2.77783 19.7925 3.803 19.7925 6.43916V21.0204C19.7925 21.2801 19.6893 21.5293 19.5056 21.7129C19.3219 21.8966 19.0728 21.9998 18.8131 21.9998C18.6474 21.9972 18.4845 21.9565 18.3371 21.8808L12.3691 18.6314C12.1492 18.5126 11.8842 18.5126 11.6643 18.6314Z" stroke="#E0E0E0" stroke-width="1.5" stroke-linecap="round" stroke-linejoin="round"/>
<path d="M8.36914 9.32275H15.6641" stroke="#E0E0E0" stroke-width="1.5" stroke-linecap="round" stroke-linejoin="round"/>
</svg>
