<svg width="16" height="16" viewBox="0 0 16 16" fill="none" xmlns="http://www.w3.org/2000/svg">
<path d="M15.2081 14.1431L12.5006 11.4656C13.582 10.1194 14.1064 8.40996 13.9659 6.68892C13.8254 4.96788 13.0306 3.36614 11.7451 2.21322C10.4596 1.0603 8.78112 0.443881 7.05498 0.490773C5.32885 0.537665 3.68632 1.2443 2.46531 2.46531C1.2443 3.68632 0.537665 5.32885 0.490773 7.05498C0.443881 8.78112 1.0603 10.4596 2.21322 11.7451C3.36614 13.0306 4.96788 13.8254 6.68892 13.9659C8.40996 14.1064 10.1194 13.582 11.4656 12.5006L14.1431 15.1856C14.2128 15.2559 14.2958 15.3117 14.3872 15.3498C14.4786 15.3879 14.5766 15.4075 14.6756 15.4075C14.7746 15.4075 14.8727 15.3879 14.964 15.3498C15.0554 15.3117 15.1384 15.2559 15.2081 15.1856C15.3433 15.0458 15.4189 14.8589 15.4189 14.6644C15.4189 14.4699 15.3433 14.283 15.2081 14.1431ZM3.53812 11.0006C2.80927 10.2643 2.31458 9.32873 2.11635 8.31181C1.91813 7.29488 2.02522 6.24204 2.42415 5.28586C2.82309 4.32967 3.49602 3.51291 4.35821 2.9384C5.2204 2.3639 6.2333 2.05734 7.26937 2.05734C8.30543 2.05734 9.31833 2.3639 10.1805 2.9384C11.0427 3.51291 11.7156 4.32967 12.1146 5.28586C12.5135 6.24204 12.6206 7.29488 12.4224 8.31181C12.2242 9.32873 11.7295 10.2643 11.0006 11.0006C10.5124 11.4938 9.93131 11.8854 9.29085 12.1526C8.6504 12.4198 7.96333 12.5573 7.26937 12.5573C6.57541 12.5573 5.88833 12.4198 5.24788 12.1526C4.60743 11.8854 4.0263 11.4938 3.53812 11.0006Z" fill="#DF1B3F"/>
</svg>
