<svg width="22" height="23" viewBox="0 0 22 23" fill="none" xmlns="http://www.w3.org/2000/svg">
<path d="M13.1361 2.86144L13.8824 2.78681L13.1361 2.86144ZM12.9838 2.04161L12.3172 2.3854V2.3854L12.9838 2.04161ZM13.4311 4.31793L14.0274 3.86304L14.0274 3.86303L13.4311 4.31793ZM14.3595 4.70248L14.2595 3.95917H14.2595L14.3595 4.70248ZM15.5979 3.88113L16.0728 4.4616L16.0728 4.4616L15.5979 3.88113ZM16.2853 3.40918L16.5135 4.12361L16.2853 3.40918ZM16.9872 3.44419L17.2854 2.75602L17.2854 2.75602L16.9872 3.44419ZM17.6243 3.9822L17.094 4.51253V4.51253L17.6243 3.9822ZM18.5178 4.87567L19.0481 4.34534V4.34534L18.5178 4.87567ZM19.0558 5.51275L19.744 5.21457L19.744 5.21456L19.0558 5.51275ZM19.0908 6.21464L19.8052 6.44288L19.8052 6.44287L19.0908 6.21464ZM18.6188 6.9021L18.0384 6.42717L18.0384 6.42717L18.6188 6.9021ZM17.7975 8.14056L17.0542 8.04057V8.04058L17.7975 8.14056ZM18.182 9.06893L17.7271 9.66522V9.66522L18.182 9.06893ZM19.6385 9.36385L19.7132 8.61758L19.6385 9.36385ZM20.4584 9.51624L20.8022 8.84969L20.8022 8.84968L20.4584 9.51624ZM20.9299 10.0373L21.6274 9.76152V9.76152L20.9299 10.0373ZM20.93 12.9626L20.2325 12.6869L20.2325 12.6869L20.93 12.9626ZM20.4583 13.4838L20.8021 14.1504V14.1504L20.4583 13.4838ZM19.6386 13.6361L19.564 12.8899L19.5396 12.8923L19.5153 12.8963L19.6386 13.6361ZM19.6386 13.6361L19.7132 14.3824L19.7377 14.38L19.7619 14.3759L19.6386 13.6361ZM18.1825 13.9309L17.7278 13.3345V13.3345L18.1825 13.9309ZM17.7979 14.8596L17.0546 14.9597V14.9597L17.7979 14.8596ZM18.619 16.0976L18.0385 16.5725V16.5725L18.619 16.0976ZM19.0908 16.7848L18.3764 17.0131V17.0131L19.0908 16.7848ZM19.0558 17.4869L18.3676 17.1886L18.3676 17.1887L19.0558 17.4869ZM18.5179 18.1238L19.0483 18.6541H19.0483L18.5179 18.1238ZM17.6243 19.0174L17.094 18.487L17.094 18.487L17.6243 19.0174ZM16.9873 19.5554L17.2855 20.2435L17.2855 20.2435L16.9873 19.5554ZM16.2854 19.5904L16.0571 20.3048H16.0571L16.2854 19.5904ZM15.5979 19.1184L16.0729 18.5379L16.0664 18.5328L15.5979 19.1184ZM15.5979 19.1184L15.1229 19.6989L15.1294 19.7041L15.5979 19.1184ZM14.3595 18.2971L14.4595 17.5538H14.4595L14.3595 18.2971ZM13.4311 18.6816L14.0274 19.1365L14.0274 19.1365L13.4311 18.6816ZM13.1362 20.1383L12.3899 20.0637L13.1362 20.1383ZM12.9837 20.9585L12.3172 20.6146L12.3172 20.6146L12.9837 20.9585ZM12.4628 21.4299L12.187 20.7325H12.187L12.4628 21.4299ZM9.53729 21.4299L9.81306 20.7325L9.53729 21.4299ZM9.01624 20.9584L9.6828 20.6146V20.6146L9.01624 20.9584ZM8.86385 20.1385L8.11758 20.2132V20.2132L8.86385 20.1385ZM8.56892 18.682L7.97263 19.1369L7.97263 19.1369L8.56892 18.682ZM7.64057 18.2975L7.5406 17.5542H7.5406L7.64057 18.2975ZM6.40208 19.1189L5.92715 18.5384L5.91527 18.5481L5.9038 18.5583L6.40208 19.1189ZM6.40206 19.1189L6.87699 19.6993L6.88887 19.6896L6.90034 19.6794L6.40206 19.1189ZM5.71458 19.5908L5.9428 20.3053H5.9428L5.71458 19.5908ZM5.01272 19.5558L4.71454 20.244H4.71454L5.01272 19.5558ZM4.37561 19.0178L4.90594 18.4875H4.90594L4.37561 19.0178ZM3.48217 18.1243L2.95184 18.6547L2.95184 18.6547L3.48217 18.1243ZM2.94414 17.4873L3.63232 17.1891H3.63232L2.94414 17.4873ZM2.90913 16.7854L3.62356 17.0136L3.62356 17.0136L2.90913 16.7854ZM3.3811 16.0979L3.96157 16.5728L3.96157 16.5728L3.3811 16.0979ZM4.20247 14.8594L4.94578 14.9594L4.20247 14.8594ZM3.81792 13.9311L4.27282 13.3348L4.27282 13.3348L3.81792 13.9311ZM2.36143 13.6361L2.2868 14.3824H2.2868L2.36143 13.6361ZM1.54161 13.4838L1.8854 12.8172H1.8854L1.54161 13.4838ZM1.07005 12.9627L0.372583 13.2384L0.372583 13.2385L1.07005 12.9627ZM1.07008 10.0372L0.372647 9.76138L0.372647 9.76139L1.07008 10.0372ZM1.54152 9.51628L1.19767 8.84975L1.19766 8.84975L1.54152 9.51628ZM2.36155 9.36384V8.61384H2.32414L2.28692 8.61757L2.36155 9.36384ZM2.36156 9.36384V10.1138H2.39896L2.43619 10.1101L2.36156 9.36384ZM3.81842 9.06881L3.36344 8.47258L3.36343 8.47258L3.81842 9.06881ZM4.20287 8.14066L4.94619 8.04078V8.04078L4.20287 8.14066ZM3.38128 6.90182L3.96175 6.42689H3.96175L3.38128 6.90182ZM2.90914 6.21405L3.6236 5.98592H3.6236L2.90914 6.21405ZM2.94413 5.51243L2.25591 5.21434L2.25591 5.21434L2.94413 5.51243ZM3.48233 4.87509L4.01266 5.40542L4.01266 5.40542L3.48233 4.87509ZM4.37565 3.98177L3.84532 3.45144L4.37565 3.98177ZM5.01277 3.44373L4.71459 2.75555L4.71459 2.75555L5.01277 3.44373ZM5.71463 3.40872L5.94285 2.69429L5.94285 2.69429L5.71463 3.40872ZM6.4022 3.88076L6.87713 3.30029V3.30029L6.4022 3.88076ZM7.64044 4.70207L7.74054 3.95878V3.95878L7.64044 4.70207ZM8.56907 4.31742L7.9727 3.86261L8.56907 4.31742ZM8.86387 2.86131L9.61015 2.93593V2.93593L8.86387 2.86131ZM9.01619 2.0417L8.34959 1.69798L8.34959 1.69798L9.01619 2.0417ZM9.53741 1.57001L9.81309 2.2675L9.81309 2.2675L9.53741 1.57001ZM12.4627 1.57005L12.7385 0.872584L12.7385 0.872584L12.4627 1.57005ZM13.8824 2.78681C13.8617 2.57989 13.8429 2.38819 13.8161 2.2282C13.788 2.06083 13.744 1.87935 13.6503 1.69782L12.3172 2.3854C12.3109 2.37319 12.3214 2.38479 12.3368 2.47658C12.3534 2.57575 12.3672 2.70932 12.3899 2.93607L13.8824 2.78681ZM14.0274 3.86303C14.0533 3.89708 14.0249 3.88487 13.9881 3.68023C13.9526 3.48276 13.9247 3.20983 13.8824 2.78681L12.3899 2.93607C12.4297 3.33391 12.4634 3.67663 12.5118 3.94589C12.559 4.20798 12.637 4.51358 12.8348 4.77282L14.0274 3.86303ZM14.2595 3.95917C14.1704 3.97115 14.0818 3.93445 14.0274 3.86304L12.8348 4.77281C13.2161 5.27271 13.8363 5.52961 14.4594 5.44578L14.2595 3.95917ZM15.1229 3.30066C14.7939 3.56987 14.5812 3.74316 14.4165 3.85767C14.2457 3.97633 14.217 3.96488 14.2595 3.95917L14.4594 5.44578C14.7826 5.40231 15.0538 5.24139 15.2725 5.08941C15.4972 4.93328 15.7634 4.71478 16.0728 4.4616L15.1229 3.30066ZM16.0571 2.69476C15.8625 2.75691 15.7031 2.8541 15.5648 2.95258C15.4327 3.04672 15.2839 3.16898 15.1229 3.30066L16.0728 4.4616C16.2492 4.3173 16.3533 4.23258 16.4352 4.17423C16.511 4.12022 16.5266 4.11943 16.5135 4.12361L16.0571 2.69476ZM17.2854 2.75602C16.8969 2.58766 16.4604 2.56589 16.0571 2.69476L16.5135 4.12361C16.5712 4.1052 16.6335 4.10831 16.689 4.13236L17.2854 2.75602ZM18.1546 3.45187C18.0076 3.30483 17.8717 3.16836 17.7496 3.06154C17.6218 2.9498 17.4728 2.83723 17.2854 2.75602L16.689 4.13236C16.6764 4.1269 16.6919 4.12924 16.7619 4.19053C16.8376 4.25673 16.9328 4.3514 17.094 4.51253L18.1546 3.45187ZM19.0481 4.34534L18.1546 3.45187L17.094 4.51253L17.9874 5.406L19.0481 4.34534ZM19.744 5.21456C19.6627 5.02714 19.5502 4.87815 19.4384 4.75041C19.3316 4.62831 19.1951 4.49239 19.0481 4.34534L17.9874 5.406C18.1486 5.56713 18.2432 5.66235 18.3094 5.73804C18.3707 5.80809 18.3731 5.82355 18.3676 5.81094L19.744 5.21456ZM19.8052 6.44287C19.9341 6.03951 19.9123 5.60311 19.744 5.21457L18.3676 5.81094C18.3917 5.86644 18.3948 5.92879 18.3764 5.98642L19.8052 6.44287ZM19.1993 7.37703C19.331 7.21608 19.4532 7.06725 19.5474 6.93512C19.6459 6.7969 19.7431 6.63745 19.8052 6.44288L18.3764 5.98641C18.3805 5.97332 18.3797 5.98893 18.3257 6.06474C18.2674 6.14664 18.1827 6.2508 18.0384 6.42717L19.1993 7.37703ZM18.5408 8.24054C18.5351 8.28298 18.5236 8.25426 18.6423 8.08352C18.7568 7.91875 18.9301 7.70607 19.1993 7.37703L18.0384 6.42717C17.7852 6.73663 17.5667 7.00282 17.4105 7.22748C17.2585 7.44616 17.0976 7.71742 17.0542 8.04057L18.5408 8.24054ZM18.6369 8.47263C18.5655 8.41815 18.5288 8.32956 18.5408 8.24054L17.0542 8.04058C16.9703 8.66369 17.2272 9.28388 17.7271 9.66522L18.6369 8.47263ZM19.7132 8.61758C19.2901 8.57527 19.0172 8.54742 18.8197 8.51189C18.6151 8.47506 18.6029 8.44666 18.6369 8.47263L17.7271 9.66522C17.9863 9.86299 18.292 9.94101 18.5541 9.98817C18.8233 10.0366 19.166 10.0703 19.5639 10.1101L19.7132 8.61758ZM20.8022 8.84968C20.6207 8.75605 20.4392 8.71202 20.2718 8.68392C20.1118 8.65705 19.9201 8.63827 19.7132 8.61758L19.5639 10.1101C19.7907 10.1328 19.9242 10.1466 20.0234 10.1632C20.1152 10.1786 20.1268 10.1891 20.1146 10.1828L20.8022 8.84968ZM21.6274 9.76152C21.4717 9.36775 21.1785 9.04379 20.8022 8.84969L20.1146 10.1828C20.1684 10.2105 20.2102 10.2568 20.2325 10.3131L21.6274 9.76152ZM21.75 10.8682C21.75 10.6603 21.7504 10.4677 21.7396 10.3058C21.7283 10.1364 21.7025 9.95148 21.6274 9.76152L20.2325 10.3131C20.2274 10.3003 20.2367 10.3129 20.2429 10.4057C20.2496 10.5061 20.25 10.6404 20.25 10.8682H21.75ZM21.75 12.1319V10.8682H20.25V12.1319H21.75ZM21.6275 13.2383C21.7025 13.0484 21.7283 12.8635 21.7396 12.6942C21.7504 12.5324 21.75 12.3398 21.75 12.1319H20.25C20.25 12.3597 20.2496 12.4939 20.2429 12.5943C20.2367 12.6871 20.2274 12.6997 20.2325 12.6869L21.6275 13.2383ZM20.8021 14.1504C21.1785 13.9563 21.4718 13.6322 21.6275 13.2383L20.2325 12.6869C20.2103 12.7432 20.1684 12.7895 20.1146 12.8172L20.8021 14.1504ZM19.7133 14.3824C19.9201 14.3617 20.1118 14.3429 20.2718 14.3161C20.4391 14.288 20.6205 14.244 20.8021 14.1504L20.1146 12.8172C20.1268 12.8109 20.1152 12.8214 20.0234 12.8368C19.9243 12.8534 19.7907 12.8672 19.564 12.8899L19.7133 14.3824ZM19.7619 14.3759L19.7619 14.3759L19.5153 12.8963L19.5153 12.8963L19.7619 14.3759ZM18.6373 14.5273C18.6033 14.5533 18.6155 14.5249 18.8201 14.4881C19.0175 14.4525 19.2903 14.4247 19.7132 14.3824L19.564 12.8899C19.1663 12.9296 18.8236 12.9633 18.5545 13.0118C18.2925 13.0589 17.9869 13.1369 17.7278 13.3345L18.6373 14.5273ZM18.5412 14.7595C18.5292 14.6704 18.5659 14.5818 18.6373 14.5273L17.7278 13.3345C17.2276 13.7159 16.9706 14.3364 17.0546 14.9597L18.5412 14.7595ZM19.1994 15.6227C18.9303 15.2937 18.7571 15.0811 18.6426 14.9164C18.524 14.7458 18.5354 14.7171 18.5412 14.7595L17.0546 14.9597C17.0981 15.2828 17.259 15.5539 17.4109 15.7725C17.567 15.9971 17.7854 16.2632 18.0385 16.5725L19.1994 15.6227ZM19.8052 16.5565C19.743 16.362 19.6459 16.2026 19.5474 16.0644C19.4533 15.9323 19.3311 15.7835 19.1994 15.6227L18.0385 16.5725C18.1828 16.7488 18.2675 16.8529 18.3258 16.9348C18.3798 17.0106 18.3806 17.0262 18.3764 17.0131L19.8052 16.5565ZM19.7439 17.7852C19.9124 17.3965 19.9342 16.96 19.8052 16.5565L18.3764 17.0131C18.3948 17.0708 18.3917 17.1331 18.3676 17.1886L19.7439 17.7852ZM19.0483 18.6541C19.1952 18.5071 19.3317 18.3712 19.4384 18.2492C19.5502 18.1215 19.6627 17.9726 19.7439 17.7852L18.3676 17.1887C18.3731 17.176 18.3708 17.1915 18.3095 17.2615C18.2433 17.3372 18.1487 17.4324 17.9876 17.5934L19.0483 18.6541ZM18.1547 19.5477L19.0483 18.6541L17.9876 17.5934L17.094 18.487L18.1547 19.5477ZM17.2855 20.2435C17.4729 20.1623 17.6219 20.0498 17.7496 19.938C17.8717 19.8312 18.0076 19.6947 18.1547 19.5477L17.094 18.487C16.9329 18.6482 16.8377 18.7428 16.762 18.809C16.6919 18.8703 16.6765 18.8727 16.6891 18.8672L17.2855 20.2435ZM16.0571 20.3048C16.4605 20.4337 16.8969 20.4119 17.2855 20.2435L16.6891 18.8672C16.6336 18.8912 16.5712 18.8944 16.5136 18.8759L16.0571 20.3048ZM15.123 19.6989C15.2839 19.8306 15.4328 19.9528 15.5649 20.047C15.7031 20.1455 15.8626 20.2426 16.0571 20.3048L16.5136 18.8759C16.5267 18.8801 16.5111 18.8793 16.4353 18.8253C16.3534 18.767 16.2492 18.6823 16.0728 18.538L15.123 19.6989ZM15.1294 19.7041L15.1294 19.7041L16.0664 18.5328L16.0664 18.5328L15.1294 19.7041ZM14.2595 19.0404C14.2171 19.0347 14.2458 19.0232 14.4165 19.1419C14.5813 19.2564 14.794 19.4297 15.123 19.6989L16.0728 18.5379C15.7634 18.2848 15.4972 18.0663 15.2726 17.9101C15.0539 17.7582 14.7826 17.5972 14.4595 17.5538L14.2595 19.0404ZM14.0274 19.1365C14.0819 19.0651 14.1705 19.0284 14.2595 19.0404L14.4595 17.5538C13.8364 17.4699 13.2161 17.7268 12.8348 18.2267L14.0274 19.1365ZM13.8824 20.2129C13.9248 19.7899 13.9526 19.5169 13.9881 19.3194C14.025 19.1147 14.0534 19.1025 14.0274 19.1365L12.8348 18.2267C12.637 18.486 12.559 18.7916 12.5119 19.0537C12.4634 19.323 12.4297 19.6658 12.3899 20.0637L13.8824 20.2129ZM13.6502 21.3024C13.7439 21.1208 13.788 20.9392 13.8161 20.7718C13.843 20.6117 13.8617 20.42 13.8824 20.2129L12.3899 20.0637C12.3672 20.2905 12.3535 20.4242 12.3368 20.5234C12.3214 20.6152 12.3109 20.6269 12.3172 20.6146L13.6502 21.3024ZM12.7386 22.1273C13.1323 21.9717 13.4562 21.6786 13.6502 21.3024L12.3172 20.6146C12.2895 20.6684 12.2432 20.7102 12.187 20.7325L12.7386 22.1273ZM11.6316 22.25C11.8397 22.25 12.0323 22.2504 12.1942 22.2396C12.3636 22.2283 12.5486 22.2025 12.7386 22.1273L12.187 20.7325C12.1997 20.7274 12.1872 20.7367 12.0943 20.7429C11.9939 20.7496 11.8596 20.75 11.6316 20.75V22.25ZM10.3682 22.25H11.6316V20.75H10.3682V22.25ZM9.26152 22.1274C9.45148 22.2025 9.63644 22.2283 9.80578 22.2396C9.96766 22.2504 10.1603 22.25 10.3682 22.25V20.75C10.1404 20.75 10.0061 20.7496 9.90574 20.7429C9.81287 20.7367 9.80028 20.7274 9.81306 20.7325L9.26152 22.1274ZM8.34968 21.3022C8.54379 21.6785 8.86775 21.9717 9.26152 22.1274L9.81306 20.7325C9.75681 20.7102 9.71053 20.6684 9.6828 20.6146L8.34968 21.3022ZM8.11758 20.2132C8.13827 20.4201 8.15705 20.6118 8.18392 20.7718C8.21202 20.9392 8.25605 21.1207 8.34968 21.3022L9.6828 20.6146C9.6891 20.6268 9.67862 20.6152 9.66321 20.5234C9.64655 20.4242 9.63281 20.2907 9.61013 20.0639L8.11758 20.2132ZM7.97263 19.1369C7.94666 19.1029 7.97506 19.1151 8.01189 19.3197C8.04742 19.5172 8.07527 19.7901 8.11758 20.2132L9.61013 20.0639C9.57035 19.6661 9.53663 19.3233 9.48817 19.0541C9.441 18.7919 9.36298 18.4863 9.1652 18.2271L7.97263 19.1369ZM7.74054 19.0408C7.82956 19.0288 7.91815 19.0655 7.97263 19.1369L9.16521 18.2271C8.78387 17.7272 8.1637 17.4704 7.5406 17.5542L7.74054 19.0408ZM6.877 19.6993C7.20605 19.4301 7.41875 19.2568 7.58352 19.1423C7.75426 19.0236 7.78298 19.0351 7.74054 19.0408L7.5406 17.5542C7.21744 17.5976 6.94617 17.7586 6.72748 17.9105C6.50281 18.0667 6.23661 18.2852 5.92715 18.5384L6.877 19.6993ZM6.90034 19.6794L6.90035 19.6794L5.9038 18.5583L5.90379 18.5583L6.90034 19.6794ZM5.9428 20.3053C6.13738 20.2431 6.29684 20.1459 6.43507 20.0474C6.5672 19.9533 6.71604 19.831 6.87699 19.6993L5.92714 18.5384C5.75076 18.6827 5.6466 18.7674 5.56469 18.8258C5.48888 18.8798 5.47327 18.8806 5.48636 18.8764L5.9428 20.3053ZM4.71454 20.244C5.10307 20.4124 5.53946 20.4341 5.9428 20.3053L5.48636 18.8764C5.42874 18.8948 5.3664 18.8917 5.3109 18.8677L4.71454 20.244ZM3.84528 19.5481C3.99233 19.6952 4.12826 19.8316 4.25037 19.9385C4.37811 20.0502 4.52711 20.1628 4.71454 20.244L5.3109 18.8677C5.32351 18.8731 5.30805 18.8708 5.23799 18.8095C5.1623 18.7433 5.06708 18.6486 4.90594 18.4875L3.84528 19.5481ZM2.95184 18.6547L3.84528 19.5481L4.90594 18.4875L4.0125 17.594L2.95184 18.6547ZM2.25596 17.7854C2.33717 17.9729 2.44975 18.1219 2.56149 18.2496C2.66831 18.3717 2.80479 18.5076 2.95184 18.6547L4.0125 17.594C3.85136 17.4329 3.75669 17.3377 3.69048 17.262C3.62919 17.1919 3.62685 17.1765 3.63232 17.1891L2.25596 17.7854ZM2.1947 16.5571C2.06585 16.9605 2.08761 17.3969 2.25596 17.7854L3.63232 17.1891C3.60827 17.1336 3.60516 17.0712 3.62356 17.0136L2.1947 16.5571ZM2.80064 15.623C2.66895 15.7839 2.54667 15.9328 2.45253 16.0649C2.35405 16.2031 2.25686 16.3626 2.1947 16.5571L3.62356 17.0136C3.61938 17.0267 3.62017 17.0111 3.67419 16.9353C3.73254 16.8534 3.81726 16.7492 3.96157 16.5728L2.80064 15.623ZM3.45917 14.7595C3.46488 14.717 3.47632 14.7457 3.35766 14.9165C3.24315 15.0812 3.06985 15.2939 2.80064 15.623L3.96157 16.5728C4.21476 16.2634 4.43327 15.9972 4.5894 15.7725C4.74138 15.5538 4.90231 15.2826 4.94578 14.9594L3.45917 14.7595ZM3.36303 14.5274C3.43444 14.5818 3.47114 14.6704 3.45917 14.7595L4.94578 14.9594C5.0296 14.3363 4.7727 13.7161 4.27282 13.3348L3.36303 14.5274ZM2.2868 14.3824C2.70983 14.4247 2.98275 14.4526 3.18022 14.4881C3.38486 14.5249 3.39707 14.5533 3.36303 14.5274L4.27282 13.3348C4.01358 13.137 3.70798 13.059 3.44589 13.0118C3.17663 12.9634 2.8339 12.9296 2.43606 12.8899L2.2868 14.3824ZM1.19782 14.1503C1.37936 14.244 1.56083 14.288 1.7282 14.3161C1.88819 14.3429 2.07988 14.3617 2.2868 14.3824L2.43606 12.8899C2.20931 12.8672 2.07575 12.8534 1.97658 12.8368C1.88479 12.8214 1.87319 12.8109 1.8854 12.8172L1.19782 14.1503ZM0.372583 13.2385C0.528277 13.6322 0.821475 13.9562 1.19782 14.1503L1.8854 12.8172C1.83164 12.7895 1.78975 12.7432 1.76751 12.6869L0.372583 13.2385ZM0.25 12.1318C0.25 12.3397 0.249612 12.5323 0.260423 12.6942C0.271732 12.8635 0.297482 13.0485 0.372583 13.2384L1.76751 12.6869C1.77257 12.6997 1.76329 12.6871 1.75709 12.5943C1.75039 12.4939 1.75 12.3597 1.75 12.1318H0.25ZM0.25 10.8683V12.1318H1.75V10.8683H0.25ZM0.372647 9.76139C0.297507 9.95138 0.271744 10.1364 0.260428 10.3058C0.249612 10.4677 0.25 10.6603 0.25 10.8683H1.75C1.75 10.6404 1.75039 10.5061 1.75709 10.4057C1.7633 10.3128 1.77258 10.3003 1.76752 10.313L0.372647 9.76139ZM1.19766 8.84975C0.821446 9.04384 0.528337 9.36772 0.372647 9.76138L1.76752 10.313C1.78976 10.2568 1.83164 10.2105 1.88538 10.1828L1.19766 8.84975ZM2.28692 8.61757C2.07995 8.63826 1.88821 8.65705 1.72817 8.68392C1.56076 8.71204 1.37924 8.75608 1.19767 8.84975L1.88538 10.1828C1.87316 10.1891 1.88477 10.1786 1.97658 10.1632C2.07578 10.1466 2.20937 10.1328 2.43618 10.1101L2.28692 8.61757ZM2.36155 8.61384H2.36155V10.1138H2.36155V8.61384ZM2.36156 8.61384H2.36155V10.1138H2.36156V8.61384ZM3.36343 8.47258C3.39748 8.4466 3.38527 8.47501 3.18059 8.51185C2.98306 8.5474 2.71006 8.57525 2.28693 8.61757L2.43619 10.1101C2.83414 10.0703 3.17695 10.0366 3.44628 9.98813C3.70844 9.94094 4.01412 9.86289 4.2734 9.66504L3.36343 8.47258ZM3.45955 8.24054C3.47151 8.32954 3.43482 8.41811 3.36344 8.47258L4.2734 9.66504C4.77308 9.28373 5.02989 8.66374 4.94619 8.04078L3.45955 8.24054ZM2.80081 7.37675C3.07011 7.70589 3.24347 7.91865 3.35801 8.08347C3.47671 8.25427 3.46525 8.28299 3.45955 8.24054L4.94619 8.04078C4.90275 7.71754 4.74179 7.44619 4.58977 7.22745C4.43359 7.00272 4.21502 6.73645 3.96175 6.42689L2.80081 7.37675ZM2.19467 6.44218C2.25683 6.63684 2.35405 6.79637 2.45257 6.93465C2.54674 7.06683 2.66906 7.21572 2.80081 7.37675L3.96175 6.42689C3.81738 6.25044 3.73261 6.14623 3.67424 6.06429C3.6202 5.98844 3.61942 5.97282 3.6236 5.98592L2.19467 6.44218ZM2.25591 5.21434C2.08768 5.60275 2.06593 6.03896 2.19467 6.44218L3.6236 5.98592C3.60521 5.92832 3.60831 5.86601 3.63235 5.81052L2.25591 5.21434ZM2.952 4.34476C2.8049 4.49186 2.66838 4.62784 2.56152 4.74999C2.44974 4.87778 2.33713 5.02684 2.25591 5.21434L3.63235 5.81052C3.62688 5.82314 3.62922 5.80767 3.69053 5.73759C3.75676 5.66187 3.85147 5.56662 4.01266 5.40542L2.952 4.34476ZM3.84532 3.45144L2.952 4.34476L4.01266 5.40542L4.90598 4.5121L3.84532 3.45144ZM3.84533 3.45144L3.84532 3.45144L4.90598 4.5121L4.90599 4.5121L3.84533 3.45144ZM4.71459 2.75555C4.52716 2.83676 4.37816 2.94934 4.25042 3.06109C4.12831 3.16791 3.99238 3.30438 3.84533 3.45144L4.90599 4.5121C5.06713 4.35095 5.16235 4.25628 5.23804 4.19007C5.3081 4.12878 5.32356 4.12644 5.31094 4.13191L4.71459 2.75555ZM5.94285 2.69429C5.5395 2.56544 5.10312 2.58721 4.71459 2.75555L5.31094 4.13191C5.36645 4.10786 5.42879 4.10475 5.48641 4.12316L5.94285 2.69429ZM6.87713 3.30029C6.71614 3.16858 6.56729 3.04629 6.43514 2.95214C6.29691 2.85366 6.13744 2.75645 5.94285 2.69429L5.48641 4.12316C5.4733 4.11897 5.48892 4.11976 5.56476 4.17379C5.64668 4.23216 5.75087 4.3169 5.92727 4.46123L6.87713 3.30029ZM7.74054 3.95878C7.78298 3.96449 7.75427 3.97593 7.58353 3.85726C7.41879 3.74276 7.20612 3.56947 6.87713 3.30029L5.92727 4.46123C6.23669 4.71439 6.50284 4.93286 6.72745 5.08898C6.94608 5.24093 7.21728 5.40185 7.54034 5.44536L7.74054 3.95878ZM7.9727 3.86261C7.91822 3.93406 7.82959 3.97077 7.74054 3.95878L7.54034 5.44536C8.16364 5.5293 8.78405 5.27232 9.16543 4.77222L7.9727 3.86261ZM8.11759 2.78668C8.0753 3.20958 8.04746 3.48243 8.01194 3.67985C7.97513 3.88444 7.94674 3.89665 7.9727 3.86261L9.16543 4.77222C9.3631 4.51303 9.44108 4.20751 9.48823 3.94549C9.53667 3.6763 9.57037 3.33367 9.61015 2.93593L8.11759 2.78668ZM8.34959 1.69798C8.256 1.87948 8.212 2.0609 8.18391 2.22823C8.15705 2.38818 8.13828 2.57981 8.11759 2.78668L9.61015 2.93593C9.63282 2.70925 9.64656 2.57573 9.6632 2.47658C9.67861 2.38481 9.68909 2.37321 9.68279 2.38543L8.34959 1.69798ZM9.26172 0.872516C8.86779 1.02822 8.54371 1.32151 8.34959 1.69798L9.68279 2.38543C9.71052 2.33164 9.75682 2.28975 9.81309 2.2675L9.26172 0.872516ZM10.3681 0.75C10.1602 0.75 9.96764 0.749612 9.80582 0.760417C9.63653 0.77172 9.45162 0.797456 9.26172 0.872516L9.81309 2.2675C9.80031 2.27255 9.8129 2.26328 9.90574 2.25708C10.0061 2.25039 10.1403 2.25 10.3681 2.25V0.75ZM11.6318 0.75H10.3681V2.25H11.6318V0.75ZM12.7385 0.872584C12.5485 0.797482 12.3635 0.771732 12.1942 0.760423C12.0323 0.749612 11.8397 0.75 11.6318 0.75V2.25C11.8597 2.25 11.9939 2.25039 12.0943 2.25709C12.1871 2.26329 12.1997 2.27257 12.1869 2.26751L12.7385 0.872584ZM13.6503 1.69782C13.4562 1.32148 13.1322 1.02828 12.7385 0.872584L12.1869 2.26751C12.2432 2.28975 12.2895 2.33164 12.3172 2.3854L13.6503 1.69782ZM14.25 11.5C14.25 13.2949 12.7949 14.75 11 14.75V16.25C13.6234 16.25 15.75 14.1234 15.75 11.5H14.25ZM11 8.25C12.7949 8.25 14.25 9.70507 14.25 11.5H15.75C15.75 8.87665 13.6234 6.75 11 6.75V8.25ZM7.75 11.5C7.75 9.70507 9.20507 8.25 11 8.25V6.75C8.37665 6.75 6.25 8.87665 6.25 11.5H7.75ZM11 14.75C9.20507 14.75 7.75 13.2949 7.75 11.5H6.25C6.25 14.1234 8.37665 16.25 11 16.25V14.75Z" fill="#4C4C4C"/>
</svg>
