<svg width="18" height="18" viewBox="0 0 18 18" fill="none" xmlns="http://www.w3.org/2000/svg">
<path d="M5.24935 16.4998H2.74935C2.0593 16.4991 1.50011 15.9399 1.49935 15.2498V12.7498C1.49935 12.5197 1.31278 12.3332 1.08268 12.3332C0.85258 12.3332 0.666016 12.5197 0.666016 12.7498V15.2498C0.667084 16.4 1.59919 17.3321 2.74935 17.3332H5.24935C5.47945 17.3332 5.66602 17.1466 5.66602 16.9165C5.66602 16.6864 5.47945 16.4998 5.24935 16.4998ZM1.08268 5.6665C1.31263 5.66635 1.4995 5.47984 1.49935 5.24984V2.74984C1.50011 2.05978 2.0593 1.5006 2.74935 1.49984H5.24935C5.47945 1.49984 5.66602 1.31327 5.66602 1.08317C5.66602 0.853068 5.47945 0.666504 5.24935 0.666504H2.74935C1.59919 0.667572 0.667084 1.59968 0.666016 2.74984V5.25035C0.666168 5.4803 0.852681 5.66666 1.08268 5.6665ZM13.9993 8.99984C13.9993 8.76974 13.8128 8.58317 13.5827 8.58317H12.2907C12.1009 7.07911 10.9201 5.89829 9.41602 5.70852V4.4165C9.41602 4.1864 9.22945 3.99984 8.99935 3.99984C8.76925 3.99984 8.58268 4.1864 8.58268 4.4165V5.70852C7.07862 5.89829 5.8978 7.07911 5.70803 8.58317H4.41602C4.18591 8.58317 3.99935 8.76974 3.99935 8.99984C3.99935 9.22994 4.18591 9.4165 4.41602 9.4165H5.70803C5.8978 10.9206 7.07862 12.1014 8.58268 12.2912V13.5836C8.58284 13.8136 8.76935 14 8.99935 13.9998C9.2293 13.9997 9.41617 13.8132 9.41602 13.5832V12.2908C10.9193 12.0999 12.0994 10.9197 12.2903 9.4165H13.5827C13.8128 9.4165 13.9993 9.22994 13.9993 8.99984ZM8.99935 11.4998C7.61863 11.4998 6.49935 10.3806 6.49935 8.99984C6.49935 7.61912 7.61863 6.49984 8.99935 6.49984C10.3795 6.50136 11.4978 7.61973 11.4993 8.99984C11.4993 10.3806 10.3801 11.4998 8.99935 11.4998ZM15.2493 0.666504H12.7493C12.5192 0.666504 12.3327 0.853068 12.3327 1.08317C12.3327 1.31327 12.5192 1.49984 12.7493 1.49984H15.2493C15.9394 1.5006 16.4986 2.05978 16.4993 2.74984V5.25035C16.4995 5.4803 16.686 5.66666 16.916 5.6665C17.146 5.66635 17.3328 5.47984 17.3327 5.24984V2.74984C17.3316 1.59968 16.3995 0.667572 15.2493 0.666504ZM16.916 12.3332C16.6859 12.3332 16.4993 12.5197 16.4993 12.7498V15.2498C16.4986 15.9399 15.9394 16.4991 15.2493 16.4998H12.7493C12.5192 16.4998 12.3327 16.6864 12.3327 16.9165C12.3327 17.1466 12.5192 17.3332 12.7493 17.3332H15.2493C16.3995 17.3321 17.3316 16.4 17.3327 15.2498V12.7498C17.3327 12.5197 17.1461 12.3332 16.916 12.3332Z" fill="#DF1B3F" stroke="#DF1B3F" stroke-width="0.5"/>
</svg>
