<svg width="16" height="16" viewBox="0 0 16 16" fill="none" xmlns="http://www.w3.org/2000/svg">
<path d="M8.46967 5.53033C8.17678 5.23744 8.17678 4.76256 8.46967 4.46967C8.76256 4.17678 9.23744 4.17678 9.53033 4.46967L8.46967 5.53033ZM14 10L14.5303 9.46967L15.0607 10L14.5303 10.5303L14 10ZM9.53033 15.5303C9.23743 15.8232 8.76256 15.8232 8.46967 15.5303C8.17678 15.2374 8.17678 14.7626 8.46967 14.4697L9.53033 15.5303ZM0.25 0.999999C0.25 0.585785 0.585787 0.249999 1 0.249999C1.41421 0.249999 1.75 0.585785 1.75 0.999999L0.25 0.999999ZM9.53033 4.46967L14.5303 9.46967L13.4697 10.5303L8.46967 5.53033L9.53033 4.46967ZM14.5303 10.5303L9.53033 15.5303L8.46967 14.4697L13.4697 9.46967L14.5303 10.5303ZM14 10.75L7 10.75L7 9.25L14 9.25L14 10.75ZM0.25 4L0.25 0.999999L1.75 0.999999L1.75 4L0.25 4ZM7 10.75C3.27208 10.75 0.249999 7.72792 0.25 4L1.75 4C1.75 6.89949 4.1005 9.25 7 9.25L7 10.75Z" fill="#666666"/>
</svg>
