<svg width="50" height="50" viewBox="0 0 50 50" fill="none" xmlns="http://www.w3.org/2000/svg">
<g clip-path="url(#clip0_6176_9750)">
<path d="M10.9023 2.22363V8.12891C10.9023 9.62402 9.67383 10.8516 8.17676 10.8516H2.26465L10.9023 2.22363ZM31.708 41.6406C31.1318 41.9473 30.7871 41.4873 30.5176 41.0273L29.2119 38.8037C28.79 38.0752 27.6768 38.6885 28.0986 39.417L29.4424 41.7559C30.6709 43.9033 32.4365 42.7148 32.4365 42.7148C33.1289 42.2549 32.4375 41.1807 31.708 41.6406ZM15.3936 22.9297H19.5391V37.2705H15.3545C14.5098 37.2705 14.5098 38.5742 15.3545 38.5742H20.1533C20.5371 38.5742 20.8057 38.2676 20.8057 37.9228V36.4648H21.957L25.1436 41.9092C25.835 43.0977 27.1016 43.6348 28.4453 43.3281C29.251 43.1367 28.9824 41.8711 28.1387 42.0625C27.333 42.2539 26.6416 41.9473 26.2578 41.2568L22.8799 35.5049C22.7646 35.3135 22.5732 35.1982 22.3428 35.1982H20.8076V24.8467H26.9111C27.7559 24.8467 27.7559 23.543 26.9111 23.543H20.8076V22.2773C20.8076 21.9326 20.5391 21.6641 20.1553 21.6641H15.3955C14.5488 21.6641 14.5488 22.9297 15.3936 22.9297ZM43.916 26.1123V37.04H40.96L36.085 27.7607C35.9697 27.5303 35.7783 27.416 35.5479 27.416C35.126 27.3779 32.7842 27.1855 32.7842 27.1855C32.5918 27.1475 32.4004 27.2236 32.2852 27.377L29.1377 30.5596C27.6025 31.6719 26.6045 30.6748 26.2197 30.0996L30.0205 25.1533C31.2109 23.6582 32.2852 23.6582 32.2852 23.6582H38.3125L43.916 26.1123ZM41.8047 38.3438H43.916V39.2637C43.916 39.6475 44.2227 39.915 44.5684 39.915H49.3672C50.2119 39.915 50.2119 38.6494 49.3672 38.6494H45.2217V24.2715H49.3291C50.1738 24.2715 50.1738 22.9678 49.3291 22.9678H44.5693C44.2236 22.9678 43.917 23.2744 43.917 23.6191V24.6924L38.7344 22.4688C38.6572 22.3916 38.542 22.3916 38.4658 22.3916H32.2852C32.2852 22.3916 30.5957 22.3916 29.0225 24.3467L24.915 29.6768C24.7998 29.8682 24.7617 30.1367 24.877 30.3672C25.9131 32.4375 28.1396 33.1279 30.0205 31.4795L32.9766 28.4883L35.126 28.6416L40.3086 38.5342C40.1553 38.8789 40.002 39.1094 39.7715 39.416C39.0039 40.4131 38.4658 39.6465 38.0059 38.8027L35.165 34.3545C34.9727 34.0479 34.5508 33.9707 34.2822 34.1631C33.9756 34.3545 33.8604 34.7383 34.0518 35.0449L36.5469 38.918V40.375C36.2402 40.4902 35.9707 40.6055 35.7022 40.7197C34.9727 40.9502 34.5889 40.7969 34.167 40.1445L32.1328 36.4639C31.7109 35.7354 30.5977 36.3486 31.0195 37.1152L33.0156 40.7197C33.8984 42.2539 35.0117 42.3301 36.5469 41.7549V45.9727C36.5469 47.4678 35.3184 48.6953 33.8213 48.6953H3.99219C2.49512 48.6953 1.2666 47.4688 1.2666 45.9727V12.1553H8.17676C10.3652 12.1553 12.207 10.3535 12.207 8.12891V1.30371H33.8193C35.3164 1.30371 36.5449 2.53027 36.5449 4.02637V10.8135C36.5449 11.6572 37.8506 11.6572 37.8506 10.8135V4.02637C37.8506 1.80176 36.0459 0 33.8193 0H11.5547C11.3623 0 11.209 0.0771485 11.0938 0.191406L0.230469 11.043C0.0771484 11.1963 0 11.3496 0 11.541V45.9736C0 48.1982 1.80469 50 3.99219 50H33.8193C36.0459 50 37.8496 48.1982 37.8496 45.9736V40.6826C38.3867 41.1426 39.001 41.334 39.6924 41.1045C40.7295 40.6826 41.4199 39.3018 41.8047 38.3438ZM22.5723 9.35547H29.751C30.5957 9.35547 30.5957 8.05176 29.751 8.05176H22.5723C21.7275 8.05176 21.7275 9.35547 22.5723 9.35547ZM15.3936 15.6445H29.751C30.5957 15.6445 30.5957 14.3408 29.751 14.3408H15.3936C14.5488 14.3408 14.5488 15.6445 15.3936 15.6445Z" fill="#333333"/>
<path d="M49.3281 35.3906C49.3281 34.8154 48.9062 34.3936 48.3301 34.3936C47.7539 34.3936 47.332 34.8154 47.332 35.3906C47.332 35.9658 47.793 36.3496 48.3301 36.3496C48.8672 36.3496 49.3281 35.9658 49.3281 35.3906ZM17.3896 34.0107C17.3896 33.4355 16.9678 32.9756 16.3916 32.9756C15.8545 32.9756 15.3936 33.4355 15.3936 34.0107C15.3936 34.5478 15.8545 35.0078 16.3916 35.0078C16.9678 35.0078 17.3896 34.5478 17.3896 34.0107Z" fill="#DF1B3F"/>
</g>
<defs>
<clipPath id="clip0_6176_9750">
<rect width="50" height="50" fill="white"/>
</clipPath>
</defs>
</svg>
