<svg width="16" height="16" viewBox="0 0 16 16" fill="none" xmlns="http://www.w3.org/2000/svg">
<path d="M8.53515 1.581L10.2726 5.07252C10.3578 5.248 10.5255 5.37068 10.7206 5.40026L14.6096 5.96212C14.7674 5.98363 14.91 6.0664 15.0055 6.19201C15.1011 6.31762 15.1418 6.47566 15.1186 6.63099C15.0991 6.75868 15.037 6.87633 14.9422 6.96543L12.1255 9.69443C11.9832 9.82892 11.9193 10.0252 11.9558 10.2162L12.6345 14.0622C12.6837 14.3791 12.4664 14.6764 12.1459 14.731C12.0137 14.7515 11.8784 14.7304 11.759 14.6708L8.29082 12.8582C8.11757 12.7642 7.90753 12.7642 7.73428 12.8582L4.24572 14.6842C3.95303 14.8322 3.59398 14.7222 3.43806 14.4367C3.37726 14.3216 3.35584 14.1903 3.37697 14.0622L4.05568 10.2162C4.08851 10.0254 4.02523 9.83083 3.886 9.69443L1.04901 6.96543C0.816998 6.73363 0.816998 6.36114 1.04901 6.12934C1.14369 6.04294 1.26141 5.98493 1.38836 5.96212L5.27736 5.40026C5.47153 5.36852 5.63829 5.24651 5.7253 5.07252L7.46279 1.581C7.53145 1.43943 7.6552 1.33118 7.80599 1.2808C7.95677 1.23043 8.12181 1.2422 8.26367 1.31345C8.38071 1.37194 8.4758 1.46566 8.53515 1.581Z" fill="#DF1B3F" stroke="#DF1B3F" stroke-width="1.5" stroke-linecap="round" stroke-linejoin="round"/>
</svg>
