<svg width="12" height="8" viewBox="0 0 12 8" fill="none" xmlns="http://www.w3.org/2000/svg">
<path d="M5.99931 6.91675L11.0933 1.83175C11.1772 1.74783 11.2438 1.64821 11.2892 1.53857C11.3346 1.42893 11.358 1.31142 11.358 1.19275C11.358 1.07407 11.3346 0.956561 11.2892 0.846921C11.2438 0.737282 11.1772 0.637661 11.0933 0.553746C11.0094 0.469831 10.9098 0.403267 10.8001 0.357852C10.6905 0.312437 10.573 0.289062 10.4543 0.289062C10.3356 0.289064 10.2181 0.312437 10.1085 0.357852C9.99884 0.403267 9.89922 0.469831 9.81531 0.553746L4.73031 5.64775C4.64664 5.7321 4.5471 5.79906 4.43743 5.84475C4.32775 5.89044 4.21012 5.91397 4.09131 5.91397C3.9725 5.91397 3.85486 5.89044 3.74519 5.84475C3.63551 5.79906 3.53597 5.7321 3.45231 5.64775L2.18331 4.36975C2.09939 4.28583 1.99977 4.21927 1.89013 4.17385C1.78049 4.12844 1.66298 4.10506 1.54431 4.10506C1.42563 4.10506 1.30812 4.12844 1.19848 4.17385C1.08884 4.21927 0.989223 4.28583 0.905308 4.36975C0.821393 4.45366 0.754828 4.55328 0.709414 4.66292C0.664 4.77256 0.640625 4.89007 0.640625 5.00875C0.640625 5.12742 0.664 5.24493 0.709414 5.35457C0.754828 5.46421 0.821393 5.56383 0.905308 5.64775L2.18331 6.91675C2.68956 7.42237 3.37581 7.70637 4.09131 7.70637C4.80681 7.70637 5.49306 7.42237 5.99931 6.91675Z" fill="#FFFFFF"/>
</svg>
