<svg width="12" height="13" viewBox="0 0 12 13" fill="none" xmlns="http://www.w3.org/2000/svg">
<path d="M4.69602 5.50005C4.56414 5.5115 4.44219 5.57477 4.3569 5.676C4.2716 5.77723 4.22993 5.90814 4.24102 6.04005L4.50102 9.04005C4.51109 9.16561 4.56819 9.28273 4.66089 9.36802C4.75358 9.4533 4.87506 9.50045 5.00102 9.50005H5.04602C5.11178 9.4944 5.17577 9.47579 5.2343 9.44528C5.29283 9.41478 5.34474 9.37299 5.38704 9.32232C5.42934 9.27166 5.46118 9.21312 5.48075 9.15008C5.50031 9.08705 5.5072 9.02076 5.50102 8.95505L5.23602 5.95505C5.22457 5.82317 5.16129 5.70122 5.06007 5.61593C4.95884 5.53064 4.82792 5.48896 4.69602 5.50005ZM6.76602 5.97005L6.50102 8.97005C6.49268 9.1003 6.5356 9.22865 6.62062 9.32768C6.70564 9.42671 6.826 9.48857 6.95602 9.50005H7.00102C7.12618 9.50056 7.24699 9.4541 7.33957 9.36986C7.43214 9.28561 7.48975 9.16971 7.50102 9.04505L7.76102 6.04505C7.77229 5.91244 7.73042 5.78079 7.64462 5.67905C7.55882 5.57731 7.43612 5.51382 7.30352 5.50255C7.17091 5.49128 7.03925 5.53315 6.93751 5.61894C6.83578 5.70474 6.77229 5.82744 6.76102 5.96005L6.76602 5.97005Z" fill="#666666"/>
<path d="M11.5 2H8V1.5C8 1.10218 7.84196 0.720644 7.56066 0.43934C7.27936 0.158035 6.89782 0 6.5 0H5.5C5.10218 0 4.72064 0.158035 4.43934 0.43934C4.15804 0.720644 4 1.10218 4 1.5V2H0.5C0.367392 2 0.240215 2.05268 0.146447 2.14645C0.0526785 2.24021 0 2.36739 0 2.5C0 2.63261 0.0526785 2.75979 0.146447 2.85355C0.240215 2.94732 0.367392 3 0.5 3H1.045L1.82 10.75C1.88218 11.3688 2.17279 11.9422 2.63506 12.3583C3.09733 12.7743 3.69808 13.0031 4.32 13H7.7C8.32192 13.0031 8.92267 12.7743 9.38494 12.3583C9.84721 11.9422 10.1378 11.3688 10.2 10.75L10.955 3H11.5C11.6326 3 11.7598 2.94732 11.8536 2.85355C11.9473 2.75979 12 2.63261 12 2.5C12 2.36739 11.9473 2.24021 11.8536 2.14645C11.7598 2.05268 11.6326 2 11.5 2ZM5 1.5C5 1.36739 5.05268 1.24021 5.14645 1.14645C5.24022 1.05268 5.36739 1 5.5 1H6.5C6.63261 1 6.75979 1.05268 6.85355 1.14645C6.94732 1.24021 7 1.36739 7 1.5V2H5V1.5ZM9.185 10.65C9.14769 11.0213 8.97333 11.3653 8.69596 11.615C8.4186 11.8646 8.05815 12.0019 7.685 12H4.31C3.93685 12.0019 3.5764 11.8646 3.29904 11.615C3.02167 11.3653 2.84731 11.0213 2.81 10.65L2.05 3H9.95L9.185 10.65Z" fill="#666666"/>
</svg>
