<svg width="45" height="38" viewBox="0 0 45 38" fill="none" xmlns="http://www.w3.org/2000/svg">
<path d="M22.5 0.992188C18.7977 0.992188 15.7822 4.02549 15.7822 7.74219C15.7823 11.4587 18.7978 14.4922 22.5 14.4922C26.2022 14.4922 29.2148 11.4587 29.2148 7.74219C29.2149 4.02549 26.2023 0.992188 22.5 0.992188ZM22.5 2.49219C25.3869 2.49219 27.7149 4.83144 27.7148 7.74219C27.7148 10.6528 25.3869 12.9922 22.5 12.9922C19.6131 12.9922 17.2823 10.6528 17.2822 7.74219C17.2822 4.83144 19.6131 2.49219 22.5 2.49219ZM9.75 5.98145C6.80598 5.98145 4.40916 8.40363 4.40918 11.3633C4.40916 14.3231 6.80598 16.7451 9.75 16.7451C12.694 16.7451 15.0908 14.3231 15.0908 11.3633C15.0908 8.40363 12.694 5.98145 9.75 5.98145ZM9.75 7.48145C11.876 7.48145 13.5908 9.20703 13.5908 11.3633C13.5908 13.5197 11.876 15.2451 9.75 15.2451C7.624 15.2451 5.90917 13.5197 5.90918 11.3633C5.90917 9.20703 7.624 7.48145 9.75 7.48145ZM37.002 11.6885C34.6056 11.8607 32.33 13.189 31.043 15.4414C30.7345 15.9813 30.5245 16.5489 30.3604 17.123C30.0792 16.9661 29.7918 16.8218 29.4932 16.6953C28.9576 16.4687 28.3941 16.2932 27.8115 16.1738C27.2279 16.0538 26.6241 15.9922 26.0068 15.9922H18.9902C17.0354 15.9922 15.2342 16.6271 13.7637 17.6943C13.3356 17.6124 12.8993 17.5566 12.4512 17.5566H7.04883V17.5596C3.153 17.5596 0 20.7417 0 24.6582V28.7363C1.98638e-05 28.9352 0.0790439 29.126 0.219692 29.2666C0.36034 29.4073 0.551094 29.4863 0.75 29.4863H4.30078C4.42284 29.5176 4.5508 29.5176 4.67285 29.4863H10.0518V30.248C10.0518 30.447 10.1308 30.6377 10.2715 30.7784C10.4121 30.919 10.6029 30.998 10.8018 30.998H15.4512C15.588 31.0378 15.7333 31.0378 15.8701 30.998H28.1748L27.7383 31.7598L26.6338 33.6934C26.0332 34.7452 26.4052 36.1063 27.4512 36.7168C27.4521 36.7168 27.4531 36.7168 27.4541 36.7168C28.4998 37.3202 29.865 36.9657 30.4658 35.9141L34.3154 29.1729L34.3447 29.1904C34.4302 29.2402 34.5248 29.2726 34.6228 29.2857C34.7209 29.2988 34.8206 29.2924 34.9162 29.2668C35.0118 29.2412 35.1014 29.1969 35.1798 29.1366C35.2582 29.0762 35.3239 29.0009 35.373 28.915L36.624 26.7207C39.5082 27.0677 42.4618 25.6938 44.001 23C46.0602 19.396 44.8308 14.7625 41.2588 12.6787C39.9193 11.8973 38.4398 11.5852 37.002 11.6885ZM37.1045 13.1826C38.2536 13.1013 39.4391 13.355 40.5146 13.9824C43.3827 15.6555 44.3623 19.3403 42.7031 22.2441C41.044 25.1478 37.3944 26.1379 34.5264 24.4648C31.6583 22.7916 30.6787 19.1011 32.3379 16.1973C33.3749 14.3825 35.1893 13.3182 37.1045 13.1826ZM18.9902 17.4922H20.4873L19.9365 25.4932C19.9293 25.6041 19.9468 25.7153 19.9879 25.8187C20.0289 25.9221 20.0924 26.015 20.1738 26.0908L21.9873 27.79C22.1263 27.9202 22.3096 27.9926 22.5 27.9926C22.6904 27.9926 22.8737 27.9202 23.0127 27.79L24.8232 26.0908C24.9046 26.015 24.9681 25.9221 25.0092 25.8187C25.0502 25.7153 25.0678 25.6041 25.0605 25.4932L24.5127 17.4922H26.0068C26.5236 17.4922 27.0284 17.5448 27.5127 17.6445C27.998 17.7435 28.4626 17.8899 28.9072 18.0781C29.3233 18.2543 29.7148 18.474 30.0879 18.7197C29.9753 20.4875 30.4618 22.2534 31.5 23.6885L30.2227 25.9297C30.125 26.1003 30.0983 26.3024 30.1481 26.4925C30.198 26.6826 30.3205 26.8456 30.4893 26.9463L29.9121 27.9541V25.7422C29.9133 25.642 29.8944 25.5425 29.8565 25.4497C29.8186 25.357 29.7625 25.2727 29.6914 25.202C29.6204 25.1312 29.536 25.0755 29.443 25.0379C29.3501 25.0004 29.2506 24.9818 29.1504 24.9834C28.952 24.9865 28.7629 25.0681 28.6245 25.2103C28.4862 25.3525 28.4098 25.5438 28.4121 25.7422V29.5273C28.3417 29.507 28.2686 29.4972 28.1953 29.498H16.4121V25.7422C16.4133 25.642 16.3944 25.5425 16.3565 25.4497C16.3186 25.357 16.2625 25.2727 16.1914 25.202C16.1204 25.1312 16.036 25.0755 15.943 25.0379C15.8501 25.0004 15.7506 24.9818 15.6504 24.9834C15.452 24.9865 15.2629 25.0681 15.1245 25.2103C14.9862 25.3525 14.9098 25.5438 14.9121 25.7422V29.498H11.5518V24.9658C11.5518 20.8107 14.8585 17.4922 18.9902 17.4922ZM21.9902 17.4922H23.0068L23.54 25.2412L22.5 26.2139L21.46 25.2412L21.9902 17.4922ZM7.04883 19.0596H12.2695C10.8921 20.6383 10.0518 22.7015 10.0518 24.9658V27.9863H5.23828V25.2588C5.23984 25.1586 5.22131 25.0591 5.18376 24.9661C5.14622 24.8732 5.09044 24.7887 5.0197 24.7177C4.94897 24.6467 4.86472 24.5906 4.77194 24.5527C4.67915 24.5148 4.57971 24.4959 4.47949 24.4971C4.38075 24.4982 4.28321 24.5189 4.19247 24.5578C4.10172 24.5967 4.01956 24.6532 3.95069 24.724C3.88183 24.7948 3.82762 24.8784 3.79116 24.9702C3.75471 25.062 3.73674 25.1601 3.73828 25.2588V27.9863H1.5V24.6582C1.5 21.5406 3.9642 19.0596 7.04883 19.0596ZM32.5518 24.8691L32.5547 24.8721C32.926 25.2053 33.3357 25.5051 33.7822 25.7656C34.2084 26.0142 34.6487 26.2137 35.0977 26.3691L34.4443 27.5146L31.8926 26.0264L32.5518 24.8691ZM31.7871 27.7021L33.0205 28.4199L29.165 35.1699C28.9665 35.5175 28.5655 35.624 28.207 35.4189C27.8542 35.211 27.7388 34.7855 27.9375 34.4375L29.042 32.5039L29.6191 31.4961L30.2959 30.3096L31.0957 28.9092L31.7871 27.7021Z" fill="#E95048"/>
</svg>
