<svg width="14" height="15" viewBox="0 0 14 15" fill="none" xmlns="http://www.w3.org/2000/svg">
<path d="M6.75592 7.53234C8.29523 7.53234 9.54308 6.28448 9.54308 4.74517C9.54308 3.20586 8.29523 1.95801 6.75592 1.95801C5.21661 1.95801 3.96875 3.20586 3.96875 4.74517C3.96875 6.28448 5.21661 7.53234 6.75592 7.53234Z" stroke="#666666" stroke-linecap="round" stroke-linejoin="round"/>
<path fill-rule="evenodd" clip-rule="evenodd" d="M2.33399 11.4088C2.33325 11.2128 2.37707 11.0193 2.46215 10.8428C2.72912 10.3088 3.48198 10.0258 4.1067 9.89769C4.55724 9.80155 5.01401 9.73731 5.47359 9.70547C6.32448 9.63073 7.18029 9.63073 8.03118 9.70547C8.49073 9.73768 8.94747 9.80191 9.39808 9.89769C10.0228 10.0258 10.7757 10.2821 11.0426 10.8428C11.2137 11.2026 11.2137 11.6203 11.0426 11.9801C10.7757 12.5407 10.0228 12.797 9.39808 12.9198C8.94806 13.0199 8.49113 13.086 8.03118 13.1174C7.33862 13.1761 6.64284 13.1868 5.9488 13.1494C5.78862 13.1494 5.63377 13.1494 5.47359 13.1174C5.01536 13.0864 4.56018 13.0203 4.11203 12.9198C3.48198 12.797 2.73446 12.5407 2.46215 11.9801C2.37751 11.8015 2.33373 11.6063 2.33399 11.4088Z" stroke="#666666" stroke-linecap="round" stroke-linejoin="round"/>
</svg>
