<svg width="32" height="38" viewBox="0 0 32 38" fill="none" xmlns="http://www.w3.org/2000/svg">
<path fill-rule="evenodd" clip-rule="evenodd" d="M15.7207 0.650391C11.1879 0.650391 7.49995 4.35419 7.5 8.90039C7.50004 13.4466 11.1879 17.1504 15.7207 17.1504C20.2535 17.1504 23.9414 13.4466 23.9414 8.90039C23.9415 4.35419 20.2536 0.650391 15.7207 0.650391ZM15.7207 2.15039C19.4396 2.15039 22.4414 5.16164 22.4414 8.90039C22.4414 12.6391 19.4396 15.6504 15.7207 15.6504C12.0018 15.6504 9.00004 12.6391 9 8.90039C8.99996 5.16164 12.0018 2.15039 15.7207 2.15039ZM11.25 18.6504C5.02856 18.6504 0 23.7027 0 29.9443V36.7178C1.98638e-05 36.9167 0.0790435 37.1074 0.219692 37.2481C0.360339 37.3887 0.551094 37.4678 0.75 37.4678H6.53027C6.67347 37.5116 6.82653 37.5116 6.96973 37.4678H24.5303C24.6735 37.5116 24.8265 37.5116 24.9697 37.4678H30.75C30.9489 37.4678 31.1397 37.3887 31.2803 37.2481C31.421 37.1074 31.5 36.9167 31.5 36.7178V29.9443C31.5 23.7027 26.4714 18.6504 20.25 18.6504H11.25ZM11.25 20.1504H20.25C25.6631 20.1504 30 24.5044 30 29.9443V35.9678H25.5V29.9326C25.5012 29.8324 25.4823 29.733 25.4444 29.6402C25.4065 29.5474 25.3503 29.4631 25.2793 29.3924C25.2083 29.3217 25.1239 29.2659 25.0309 29.2283C24.938 29.1908 24.8385 29.1723 24.7383 29.1738C24.5399 29.1769 24.3508 29.2585 24.2124 29.4007C24.0741 29.543 23.9977 29.7342 24 29.9326V35.9678H7.5V29.9326C7.50118 29.8324 7.48226 29.733 7.44436 29.6402C7.40646 29.5474 7.35034 29.4631 7.27934 29.3924C7.20833 29.3217 7.12387 29.2659 7.03094 29.2283C6.93801 29.1908 6.8385 29.1723 6.73828 29.1738C6.53988 29.1769 6.3508 29.2585 6.21243 29.4007C6.07405 29.543 5.99767 29.7342 6 29.9326V35.9678H1.5V29.9443C1.5 24.5044 5.8369 20.1504 11.25 20.1504Z" fill="#DF1B3F"/>
</svg>
