<svg width="13" height="11" viewBox="0 0 13 11" fill="none" xmlns="http://www.w3.org/2000/svg">
<path d="M0.624531 10.9944C0.667528 11.0059 0.713208 10.9995 0.75167 10.9768C0.790132 10.954 0.818276 10.9166 0.830003 10.8727C1.17581 9.55152 2.58121 9.20911 3.42123 9.00421C3.63174 8.95298 3.79793 8.91242 3.90604 8.86463C4.86289 8.43936 5.17479 7.75522 5.26813 7.25604C5.27368 7.22634 5.27148 7.19566 5.26175 7.16711C5.25203 7.13856 5.23512 7.11314 5.21273 7.09342C4.7145 6.65303 4.29415 5.99192 4.02892 5.23146C4.02144 5.20965 4.00967 5.18964 3.99434 5.17267C3.64349 4.78212 3.44205 4.36923 3.44205 4.04022C3.44205 3.84804 3.51289 3.71912 3.67236 3.62183C3.69625 3.60721 3.71622 3.58673 3.73046 3.56225C3.7447 3.53776 3.75277 3.51004 3.75395 3.48156C3.82815 1.7303 5.04621 0.351697 6.54024 0.342759L6.57617 0.345165C8.07759 0.36648 9.28793 1.77465 9.33124 3.55067C9.33184 3.57494 9.33749 3.59881 9.34779 3.62068C9.35809 3.64255 9.37282 3.66193 9.391 3.67752C9.49609 3.76863 9.5451 3.88414 9.5451 4.04091C9.5451 4.31629 9.40174 4.65492 9.14188 4.9939C9.1295 5.01021 9.11996 5.02858 9.11368 5.04822C8.84509 5.92007 8.36297 6.68981 7.79154 7.16081C7.76787 7.18038 7.74981 7.20616 7.73929 7.23539C7.72877 7.26463 7.72617 7.29623 7.73178 7.32686C7.82511 7.8257 8.13702 8.5095 9.09387 8.93545C9.20701 8.98565 9.38261 9.02484 9.6052 9.074C10.4368 9.25827 11.8285 9.56734 12.1699 10.8727C12.1756 10.8945 12.1855 10.915 12.199 10.9329C12.2124 10.9508 12.2292 10.9658 12.2483 10.977C12.2674 10.9883 12.2885 10.9956 12.3103 10.9985C12.3322 11.0015 12.3544 10.9999 12.3757 10.9941C12.397 10.9882 12.417 10.9781 12.4344 10.9643C12.4519 10.9506 12.4666 10.9334 12.4776 10.9138C12.4886 10.8943 12.4957 10.8727 12.4986 10.8503C12.5014 10.8279 12.5 10.8051 12.4942 10.7833C12.0997 9.27512 10.5231 8.92548 9.67638 8.73777C9.47997 8.69411 9.31042 8.65664 9.22783 8.61951C8.60336 8.34173 8.2186 7.91852 8.08263 7.35952C8.66245 6.84968 9.14759 6.06308 9.42491 5.18092C9.71935 4.789 9.88118 4.38539 9.88118 4.04057C9.88118 3.81057 9.80866 3.61874 9.66496 3.46884C9.58506 1.54224 8.24244 0.0250967 6.57617 0.00068758L6.52614 0C4.89009 0.00893855 3.54176 1.4862 3.42392 3.37946C3.21375 3.5376 3.10698 3.75935 3.10698 4.04091C3.10698 4.44761 3.33159 4.93408 3.72474 5.38032C3.99635 6.14456 4.41737 6.81598 4.91863 7.28595C4.78332 7.84701 4.39823 8.27159 3.77241 8.54972C3.6915 8.58582 3.53035 8.62535 3.34368 8.67073C2.49057 8.87838 0.903194 9.26515 0.505679 10.784C0.494199 10.8281 0.500271 10.875 0.522559 10.9144C0.544847 10.9539 0.581526 10.9826 0.624531 10.9944Z" fill="#A4A4A4"/>
</svg>
