<svg width="17" height="16" viewBox="0 0 17 16" fill="none" xmlns="http://www.w3.org/2000/svg">
<path fill-rule="evenodd" clip-rule="evenodd" d="M8.16228 12.069L4.20805 14.2353C3.89233 14.3994 3.50338 14.2832 3.32933 13.9729C3.27897 13.8768 3.25181 13.7702 3.25 13.6617V4.06293C3.25 2.23227 4.50095 1.5 6.30111 1.5H10.5299C12.2752 1.5 13.581 2.18345 13.581 3.94088V13.6617C13.581 13.8349 13.5123 14.001 13.3898 14.1234C13.2674 14.2459 13.1013 14.3146 12.9281 14.3146C12.8177 14.3129 12.7091 14.2857 12.6108 14.2353L8.63215 12.069C8.48554 11.9898 8.30889 11.9898 8.16228 12.069Z" stroke="#666666" stroke-linecap="round" stroke-linejoin="round"/>
<path d="M5.96484 5.86328H10.8282" stroke="#666666" stroke-linecap="round" stroke-linejoin="round"/>
</svg>
