<svg width="50" height="50" viewBox="0 0 50 50" fill="none" xmlns="http://www.w3.org/2000/svg">
<g clip-path="url(#clip0_6176_7437)">
<path d="M9.20898 25.6514C8.36523 25.6514 8.36523 24.3477 9.20898 24.3477H19.9521C20.835 24.3477 20.835 25.6514 19.9521 25.6514H9.20898ZM12.2012 1.30371V8.12891C12.2012 10.3525 10.3975 12.1553 8.17285 12.1553H1.30469V45.9746C1.30469 47.4697 2.53223 48.6973 4.0293 48.6973H31.2334C32.0771 48.6973 32.0771 50.001 31.2334 50.001H4.02832C1.80371 50 0 48.1982 0 45.9736V11.541C0 11.3496 0.0771484 11.1963 0.230469 11.043L11.0889 0.191406C11.2041 0.0761719 11.3955 0 11.5498 0H33.8037C36.0293 0 37.832 1.80176 37.832 4.02637V10.8135C37.832 11.6572 36.5273 11.6572 36.5273 10.8135V4.02637C36.5273 2.53125 35.2998 1.30371 33.8027 1.30371H12.2012ZM2.26367 10.8516H8.17285C9.66895 10.8516 10.8975 9.625 10.8975 8.12891V2.22363L2.26367 10.8516ZM9.20898 32.7842C8.36523 32.7842 8.36523 31.4805 9.20898 31.4805H19.9521C20.835 31.4805 20.835 32.7842 19.9521 32.7842H9.20898ZM9.20898 39.916C8.36523 39.916 8.36523 38.6123 9.20898 38.6123H19.9521C20.835 38.6123 20.835 39.916 19.9521 39.916H9.20898Z" fill="#333333"/>
<path d="M31.2325 31.5186C32.0763 31.5186 32.0763 32.8223 31.2325 32.8223H26.4747C25.7071 32.8223 25.4005 33.8955 25.8605 34.4707C29.4288 39.0723 33.0743 43.7119 36.5655 48.3897C36.9112 48.8115 37.4483 48.8115 37.7931 48.3516C41.3614 43.75 44.8917 39.0342 48.4981 34.4326C48.92 33.8574 48.6515 32.8223 47.8839 32.8223H42.1681C41.8224 32.8223 41.5538 32.5537 41.5538 32.1709V15.6445C41.5538 14.8008 42.8204 14.8008 42.8204 15.6445V31.5186H47.8849C49.7267 31.5186 50.6095 33.8193 49.5343 35.2383C46.004 39.916 42.3976 44.5176 38.8292 49.1572C37.9855 50.2695 36.3732 50.2695 35.5294 49.1572C31.923 44.5947 28.3927 39.8779 24.8243 35.2383C23.7501 33.8193 24.5939 31.5186 26.4737 31.5186H31.2325Z" fill="#333333"/>
<path d="M40.8337 36.2591C40.8352 35.903 40.7455 35.5523 40.573 35.2407C40.4005 34.9291 40.1509 34.667 39.8482 34.4793C39.5455 34.2916 39.1998 34.1846 38.844 34.1686C38.4881 34.1526 38.1342 34.2281 37.8158 34.3879C37.4975 34.5476 37.2255 34.7863 37.0257 35.0812C36.8259 35.376 36.705 35.7172 36.6746 36.0721C36.6442 36.4269 36.7053 36.7837 36.8521 37.1082C36.9988 37.4327 37.2263 37.7142 37.5128 37.9258C37.16 38.1863 36.8984 38.5515 36.7653 38.9694C36.6322 39.3873 36.6343 39.8366 36.7715 40.2532C36.9086 40.6698 37.1737 41.0325 37.529 41.2896C37.8843 41.5467 38.3117 41.6851 38.7503 41.6851C39.1889 41.6851 39.6163 41.5467 39.9716 41.2896C40.3269 41.0325 40.5921 40.6698 40.7292 40.2532C40.8663 39.8366 40.8685 39.3873 40.7354 38.9694C40.6023 38.5515 40.3407 38.1863 39.9878 37.9258C40.2494 37.7335 40.4621 37.4825 40.609 37.1931C40.7559 36.9036 40.8329 36.5837 40.8337 36.2591ZM40.0003 39.5925C40.0003 39.8397 39.927 40.0814 39.7897 40.2869C39.6523 40.4925 39.4571 40.6527 39.2287 40.7473C39.0003 40.8419 38.7489 40.8667 38.5065 40.8184C38.264 40.7702 38.0413 40.6512 37.8664 40.4763C37.6916 40.3015 37.5726 40.0788 37.5243 39.8363C37.4761 39.5938 37.5009 39.3425 37.5955 39.1141C37.6901 38.8857 37.8503 38.6905 38.0559 38.5531C38.2614 38.4158 38.5031 38.3425 38.7503 38.3425C39.0818 38.3425 39.3998 38.4742 39.6342 38.7086C39.8686 38.943 40.0003 39.2609 40.0003 39.5925ZM38.7503 37.5091C38.5031 37.5091 38.2614 37.4358 38.0559 37.2985C37.8503 37.1611 37.6901 36.9659 37.5955 36.7375C37.5009 36.5091 37.4761 36.2577 37.5243 36.0153C37.5726 35.7728 37.6916 35.5501 37.8664 35.3752C38.0413 35.2004 38.264 35.0814 38.5065 35.0331C38.7489 34.9849 39.0003 35.0097 39.2287 35.1043C39.4571 35.1989 39.6523 35.3591 39.7897 35.5647C39.927 35.7702 40.0003 36.0119 40.0003 36.2591C40.0003 36.5906 39.8686 36.9086 39.6342 37.143C39.3998 37.3774 39.0818 37.5091 38.7503 37.5091Z" fill="#DF1B3F"/>
<rect x="34.167" y="34.1758" width="1" height="7.5" rx="0.5" fill="#DF1B3F"/>
</g>
<defs>
<clipPath id="clip0_6176_7437">
<rect width="50" height="50" fill="white"/>
</clipPath>
</defs>
</svg>
